<?xml version="1.0" encoding="UTF-8" standalone="no"?>
<!-- Created with Inkscape (http://www.inkscape.org/) -->

<svg xmlns="http://www.w3.org/2000/svg" id="a" viewBox="0 0 1224.91 431.39"><defs><style>.b{fill:#fff;}.c{fill:#afb0b2;}.d{fill:#221f1f;}.e{fill:#808081;}</style></defs><g><g><path class="b" d="M660.49,372.4c-5.15,0-9.35,1.63-12.6,4.91-3.26,3.27-6,8.65-8.24,16.13-1.95,6.5-2.24,11.07-.86,13.73,1.38,2.65,4.73,3.98,10.08,3.98h20.44l-3.09,10.3h-21.04c-4.65,0-8.18-.39-10.6-1.19-2.42-.79-4.51-2.13-6.28-4.01-2.31-2.41-3.64-5.55-3.99-9.44-.35-3.87,.28-8.51,1.9-13.9,3.13-10.47,7.72-18.17,13.75-23.16,6.03-4.97,13.79-7.47,23.32-7.47h20.69l-3.04,10.1h-20.44Z"></path><path class="b" d="M716.64,362.3h13.2l7.49,59.16h-13.84l-1.21-14.08h-25.71l-9.5,14.08h-13.2l42.77-59.16Zm2.59,11.75l-15.49,22.77h17.63l-2.14-22.77Z"></path><path class="b" d="M761.68,362.31h30.63c7.14,0,11.94,1.43,14.4,4.3,2.47,2.88,2.78,7.37,.96,13.49-1.37,4.53-3.5,8.23-6.41,11.1-2.92,2.88-6.43,4.73-10.54,5.55l7.36,24.72h-14l-6.06-23.27h-14.65l-6.97,23.27h-12.44l17.74-59.16Zm24.53,10.54h-15.26l-4.46,14.88h15.26c4.13,0,7.16-.56,9.12-1.68,1.94-1.13,3.33-3.06,4.15-5.8,.81-2.71,.59-4.62-.64-5.74-1.23-1.11-3.96-1.67-8.17-1.67"></path><path class="b" d="M846.21,362.3h13.2l7.49,59.16h-13.84l-1.21-14.08h-25.71l-9.5,14.08h-13.2l42.77-59.16Zm2.59,11.75l-15.49,22.77h17.63l-2.14-22.77Z"></path><polygon class="b" points="882.38 421.46 874.32 362.3 888.46 362.3 893.03 406.37 924.47 362.3 937.71 362.3 895.26 421.46 882.38 421.46"></polygon><path class="b" d="M957.09,362.3h13.2l7.49,59.16h-13.84l-1.21-14.08h-25.71l-9.5,14.08h-13.2l42.77-59.16Zm2.59,11.75l-15.49,22.77h17.63l-2.14-22.77Z"></path><polygon class="b" points="1002.14 362.3 1017.87 362.3 1029.35 404.8 1041.5 362.3 1054.21 362.3 1036.46 421.46 1022.03 421.46 1010.01 376.71 997.15 421.46 984.4 421.46 1002.14 362.3"></polygon><path class="b" d="M1116.4,372.85h-30.75c-3.3,0-5.9,.62-7.82,1.85-1.91,1.23-3.27,3.19-4.08,5.88-.64,2.14-.47,3.75,.53,4.83,.98,1.06,2.78,1.61,5.38,1.61h16.46c6.82,0,11.28,1.28,13.39,3.86,2.11,2.58,2.26,6.87,.46,12.87-1.83,6.09-4.83,10.56-9.01,13.42-4.17,2.86-9.84,4.3-16.98,4.3h-33.12l3.16-10.55h31.15c3.55,0,6.2-.52,7.95-1.55,1.77-1.03,3-2.75,3.71-5.13,.74-2.47,.61-4.22-.41-5.28-1.02-1.04-3.13-1.56-6.35-1.56h-14.69c-6.81,0-11.39-1.37-13.72-4.09-2.34-2.72-2.63-7.02-.86-12.9,1.89-6.28,4.91-10.87,9.1-13.76,4.17-2.9,9.87-4.34,17.1-4.34h32.55l-3.16,10.54Z"></path></g><path class="d" d="M235.32,431.39c-37.55,0-72.67-9.32-101.57-26.96-34.35-20.97-59.21-49.12-71.87-81.41-19.55-49.86-15.99-100.44,10.04-142.44,10.61-17.13,24.79-32.21,41.18-43.86-1.74,.12-3.41,.17-5.04,.17-5.87,0-16.82-.59-22.79-1.92-15.44-3.42-28.3-11.36-38.24-23.61-.62,.02-1.23,.03-1.86,.03-12.74,0-24.82-4.23-33.14-11.6C.58,89.63-3.41,70.42,3.17,56.98c4.58-9.36,13.93-14.51,26.31-14.51,7.85,0,15.17,2.16,16.97,3.71l2.38,2.05-3.14,.14c-4.5,.2-11.35,4.31-13.09,7.85-.8,1.63-.2,2.48,0,2.76,.32,.45,.72,.64,1.33,.64,2,0,5.58-2,10.66-5.93,4.29-3.31,9.13-7.06,16.87-7.9,1.34-.15,2.72-.22,4.09-.22,1.06,0,2.15,.04,3.25,.13-2.01-11.31,.09-20.89,6.28-28.5C85.37,4.5,105.22,0,119.09,0c2.32,0,4.47,.13,6.38,.37,23.3,2.99,33.47,18.54,33.89,19.2l1.46,2.28-2.69-.37s-4.08-.57-8.38-.57c-7.14,0-8.96,1.52-9.42,2.17-.22,.31-.47,.86-.06,1.96,.27,.74,1.84,1.18,4.21,1.18,6.96,0,19.85-3.59,29.53-7.15l.82-.31c.63-.24,1.27-.48,1.9-.69,28.77-9.73,55.79-14.67,80.32-14.67,50.27,0,77.9,20.3,90,32.57,18.09,6.16,32.14,19.32,41.79,39.14l5.87-.7,29.7,48.34-57.39,76.87-.31-3.21s-.25-2.48-1.36-6.13c-13.39,31.48-43.99,59.74-78.78,72.52l-2.39,.88,3.61-11.38c6.13-19.3,4.53-37.18-4.75-53.14,1.11,20.9-13.12,43.84-28.43,55.96l-1.9-1.53c1.65-3.35,3.4-7.15,4.64-11.15-9.33,9.65-28.08,25.11-53.18,26.34,4.51,2,9.35,3.02,14.43,3.02,9.42,0,19.11-3.54,26.58-9.71l1.9,1.55c-5.13,9.8-14.06,14.92-22.32,19.24,1.86,1.21,3.81,2.39,5.71,3.54,1.62,.98,3.28,1.99,4.83,2.98,4.65,2.97,11.2,6.69,12.87,7.21,12.65-7.96,13.78-15.75,13.79-15.83l.24-1.9,1.64,.99c9.42,5.7,19.37,12.32,28.8,18.71,9.58-25.63,26.51-39.11,27.24-39.68l2.1-1.64-.08,2.67c-.76,26.01,15.74,47.77,30.47,49.19l781.48,3.89-8.79,28.74-517.02,9.63c2.24,5.52,2.42,13.59-2.3,20.12l-.63,.88-.95-.5c-16.82-8.76-37.86-13.61-62.56-13.61-63.85,0-136.59,29.17-175.67,44.61l-1.37,.54c-34.81,12.33-75.45,25.65-117.75,27.74-3.88,.18-7.75,.28-11.5,.28m125.28-251.83c-1.51-2.5-3.25-4.84-5.18-6.98-3.31,.84-6.88,3.99-9.76,6.98h14.94ZM197.12,109.8c2.45,0,4.96,.06,7.45,.17,3.37-6.96,11.11-13.89,17.65-15.67l2.08-.58-.55,2.09c-.82,3.16-.65,5.53,.52,7.05,1.27,1.64,3.82,2.48,7.59,2.48,4.38,0,10.24-1.12,17.87-3.42-.03-9.42,.89-21.38,7.29-32.83-13.05,3.03-26.01,12.54-40.86,23.43-7.86,5.76-15.94,11.69-24.92,17.38,1.93-.07,3.9-.11,5.87-.11"></path><path class="b" d="M584.99,354.66c2.59,.67,5.12,1.4,7.56,2.17,2.03,.65,4.29,1.42,6.67,2.3,.3-.88,.26-1.67,.15-2.3-1.11-6.18-14.12-19.56-55.8-30.46-14.15-3.7-75.08-14.19-126.62,.74-26.42,7.65-45.85,13.14-66.27,19.82-14.35,4.7-29.18,9.55-44.79,13.99-11.37,3.23-52.12,13.22-98.82,5.97-38.57-5.99-68.73-22.43-88.09-47.82-.03,.01-.06,.03-.09,.04l-.17-.4c-2.64-3.49-5.08-7.14-7.31-10.97-21.62-37.12-20.05-78.09,4.3-112.42,25.05-35.3,68.96-54.86,106.77-47.56,29.4,5.68,55.93,23.11,69.23,45.49,9.38,15.78,12.29,33.74,8.58,52.43,13.86-7.82,33.2-23.59,46.36-42.97h0c2.77-4.1,5.28-8.35,7.4-12.72l-23.21,.32c-51.17-71.93-124.62-71.43-145.9-69.56-42.14,3.7-81.07,28.11-104.12,65.32-24.25,39.14-27.52,86.41-9.2,133.14,14.94,38.09,45,62.52,67.59,76.31,30.18,18.41,67.23,27.12,107.12,25.15,39.75-1.95,78.62-14.19,114.7-27.13,32-11.47,116.23-45.33,177.3-45.33,21.42,0,37.34,3.58,46.68,6.45"></path><path class="b" d="M180.02,27.17c-.89,.28-1.77,.65-2.67,.97-13.46,4.94-28.72,10.55-41.56,5.07-8.27-3.53-9.4-7.91-8.89-10.96,.61-3.69,4.02-6.56,9.48-8.22h0s0,0,.01,0c.06-.02,.11-.04,.17-.06t-.01,0c-1.25-1.45-3.17-2.54-5.25-3.32-2.69-1.05-5.55-1.49-7.82-1.57-34.88-1.18-60.15,29.46-27.87,45.34t.01,0c.59,.23,1.22,.45,1.94,.67,2.31,.71,4.66,1.26,7.03,1.7,.08,.02,.16,.03,.25,.05,.37,.07,.74,.13,1.11,.2,.49,.07,.97,.16,1.47,.22l.1,.02c28.83,4.14,60.64-8.57,60.64-8.57-20.6,14.34-38.97,23.53-72.67,14.41-3.87-1.04-7.6-2.26-11.19-3.52-3.4-1.19-6.71-2.35-10.04-3.17l-.2,.12c-.04-.07-.07-.13-.1-.2-3.75-.9-7.52-1.36-11.46-.93-5.04,.55-8.27,3.05-12.01,5.94-3.16,2.44-6.74,5.22-11.61,6.72-8.36,2.58-13.32-1.07-15.04-4.98-1.33-3.03-1.15-6.98,.94-10.71-2.41,.22-4.52,.87-6.34,1.9-.05,.03-.09,.06-.14,.08-.24,.14-.47,.28-.7,.44-.1,.06-.19,.13-.28,.2-.18,.13-.37,.26-.54,.4-.28,.21-.54,.44-.8,.68-.01,0-.02,.02-.03,.02-.37,.35-.72,.72-1.06,1.11-.03,.04-.06,.08-.1,.12-.32,.38-.62,.79-.91,1.22l-.09,.14c-.28,.44-.55,.91-.8,1.4-.25,.49-.48,1-.68,1.53-.04,.1-.08,.2-.12,.29-1.95,5.24-1.67,11.8,.4,17.76,.2,.55,.4,1.1,.63,1.64,1.56,3.8,3.87,7.26,6.8,9.86,9.1,8.07,21.05,10.34,32.32,10.01,10.98-.33,33.75-12.38,44.29-9.47,5.86,1.62,8.24,5.29,8.77,8.26,0,0,0,.01,0,.02,.02,.15,.03,.29,.05,.44,.01,.1,.03,.2,.04,.29,.06,.71,0,1.36-.13,1.9-.11,.46-.24,.91-.38,1.33,0,.01,0,.02,0,.03,0,0,0,0,0,0-4.53,13.46-24.1,9.09-26.34,8.86,8.11-1.21,18.52-5.53,15.47-11.06h0v-.02c-1.44-2.58-4.06-3.47-7.19-3.39-5.56,.05-12.66,3.28-17.89,5.61-.24,.11-.48,.21-.71,.32-1.68,.74-3.32,1.46-4.93,2.13-.83,.35-1.66,.68-2.47,.99,9.89,11.14,21.9,16.63,34.24,18.7,.82,.14,1.64,.26,2.47,.37,7.83,1.03,15.74,.75,23.29-.27,5.39-.73,10.59-1.83,15.44-3.1,7.6-2,14.79-4.58,21.63-7.55,.98-.42,1.95-.85,2.91-1.29,25.57-11.65,46.33-28.58,65.69-41.13,.61-.4,1.22-.8,1.84-1.18,12.62-8.04,24.69-14.06,37.17-15.37,.83-.09,1.66-.15,2.5-.2,.91-.93,1.85-1.84,2.8-2.72,.57-.52,1.15-1.03,1.73-1.54,4.22-3.64,8.89-6.82,13.89-9.49,11.92-6.36,25.68-9.75,39.47-9.21,1.79,.07,3.56,.2,5.3,.38-26.26-17.64-77.52-30.28-151.32-6.63"></path><path class="b" d="M294.61,66.79c9.53,11.91,22.47,15.73,36.24,16.51l47.58-5.69c-11.54-22.31-29.27-34.08-52.75-35-8.47-.34-17.05,1.1-25.08,3.95-1.3,1.06-2.54,2.11-3.71,3.1-4.56,3.43-6.85,10.27-2.28,17.12"></path><path class="b" d="M410.49,118.92l-20.28-35.38-92.96,11.38-14.34,24.23s52.91,25.71,71.7,38.07c16.28,10.71,17.8,21.26,17.8,21.26l36.37-52.68-38.35-6.16,40.05-.72Zm-70.21-23.51l45.49-.49,10.38,16.81-59.34-6.43,3.47-9.89Zm-4.07,42.76l11.37-16.81,11.68,2.68-13.16,19.6c-3.11-1.76-6.44-3.6-9.89-5.46m59.24-5.86l-22.15,32.09c-1.78-2.31-4.03-4.81-6.92-7.36l18.39-27.18,10.67,2.45Zm-17.16-3.93l-16.68,24.84c-.95-.69-1.94-1.38-2.99-2.08-1.87-1.23-4.06-2.58-6.49-4.03l14.48-21.4,11.68,2.67Z"></path><path class="c" d="M188.67,277.84c-3.52-5.75-4.33-14.29,5.41-17.8-2.25-1.43-4.07-4.86-6.32-6.22,8.92-6.28,17.33-13.88,26.07-20.55-17.2-20.89-61.27-46.88-81.57-39.45,5.45-.28,6.25,.04,13.72,1.8-5.81,5.73-10.58,11.38-14.46,17.33,20.02,8.34,38.29,18.11,50.5,35.44-21.86-15.82-40.9-23.45-65.35-27.35,3.5,1.49,4.36,2.82,7.66,4.74-1.66,3.9-2.99,8.15-4.04,12.14,13.78,4.17,20.92,8.13,30.74,16.52-16.01-6.33-23.92-8.12-40.78-9.85,5.25,2.29,7.51,4.62,7.51,4.62-1.45,10.29-.79,19.89,1.08,25.93,9.03-1.97,14.77-1.81,23.12-1.04-12.4,3.03-17.38,7.69-26.82,16.06,4.18-1.83,8.02-3.36,8.02-3.36,1.69,3.7,3.55,6.99,5.58,10.09,21.59-15.34,45.85-19.49,59.95-19.04"></path><path class="c" d="M199.01,292.5c-2.04-1.72-3.98-3.54-5.93-5.32-33.43,1.82-52.08,18.26-61.32,28.63,3.52-1.6,6.78-3.16,8.92-4.1,7.65,7.72,17.05,14.31,28.74,20.4,8.97-17.16,19.89-30.35,29.59-39.61"></path><path class="c" d="M286.87,339.81c-5.07-8.09-4.86-16.64-6.3-25.31,2.5,3.16,5.12,6.16,7.53,9.33,.43-4.44,1.14-8.65,2.06-12.65-7.75-5.3-15.83-12.11-23.94-16.78-1.27,6.35-19.34,17.38-19.34,17.38l-4.06-2.74c-5.11-3.35-10.1-6.94-14.93-10.41-4.12-2.95-8.34-5.98-12.65-8.87-12.24,8.88-30.9,27.7-43.29,56.63,2.41-3.37,5.29-6.44,8.16-9.62,13.66,4.95,36.89,5.87,51.3,1.9-1.44,4.28-3,10.55-3.37,16.36,2.01-7.56,5.52-14.8,8.45-22.28,9.82,12.38,16.78,17.84,30.69,25.3,0,0,3.93-12.66,19.69-18.24"></path><path class="c" d="M224.39,236.1c-10.79-21.94-39.63-43.61-62.13-50.54-1.37-.42-2.75-.76-4.11-1.04,15.82-14.01,44.78-34.9,84.73-20.28,8.98,3.72,15.4,7.24,22.58,13.01,7.14,18.53,2.38,43.42-18.05,52.32,0,0-11.56,5.08-23.02,6.52"></path><path class="c" d="M550.21,319.63c23.36,3.97,35.2,10.38,50.17,20.71l514.73-7.72,2.74-9.1-567.64-3.89Z"></path><path class="c" d="M266.4,48.22c-41.88-7.43-61.01,22.29-107.61,50.53-12.4,7.51-28.78,16.23-42.74,13.84,.02-.02,.05-.05,.07-.07,14.95-23.83-11.41-41.31-33.79-36.4-18.15,3.98-29.73,20.23-52.11,12.88-13.49-6.74-20.13-23.71-6.86-36.41-2.92,.5-5.39,1.67-7.34,3.48l-.03,.03c-.37,.35-.72,.72-1.06,1.11-.03,.04-.06,.08-.09,.12-.32,.39-.62,.79-.91,1.22l-.09,.14c-.29,.44-.55,.91-.81,1.39-.25,.5-.47,1.01-.67,1.53-.04,.1-.08,.19-.12,.29-1.95,5.24-1.67,11.81,.4,17.76,1.55,4.44,4.08,8.54,7.43,11.51,9.1,8.07,21.05,10.34,32.32,10,10.98-.32,33.75-12.38,44.29-9.46,5.86,1.62,8.24,5.29,8.77,8.26v.02c.03,.15,.04,.29,.06,.44,.01,.1,.03,.19,.04,.29,.06,.71,0,1.36-.13,1.9-.11,.46-.24,.91-.38,1.33,0,.01,0,.02,0,.03,0,0,0,0,0,0-4.53,13.45-24.1,9.09-26.34,8.86,8.11-1.21,18.52-5.53,15.47-11.06,0,0,0,0,0,0,0,0,0-.01,0-.02-1.43-2.58-4.04-3.47-7.18-3.39-5.57,.06-12.66,3.29-17.89,5.61-.24,.11-.48,.21-.71,.32-1.68,.74-3.32,1.46-4.93,2.13-.83,.35-1.66,.68-2.47,.99,9.89,11.14,21.9,16.63,34.24,18.7,.82,.13,1.64,.26,2.47,.37,7.83,1.03,15.74,.75,23.29-.27,5.39-.73,10.59-1.83,15.44-3.11,8.68-2.28,16.83-5.32,24.55-8.84,25.57-11.65,46.33-28.57,65.69-41.13,.61-.4,1.22-.79,1.84-1.18,13.46-8.57,26.29-14.85,39.67-15.56,.91-.93,1.85-1.84,2.8-2.73,.57-.52,1.14-1.03,1.73-1.53,.42-.36,.89-.77,1.25-1.06-1.91-1.25-3.97-2.14-7.54-2.86"></path><path class="c" d="M95.63,54.41c.59,.24,1.22,.46,1.94,.67,10.41,3.18,21.62,3.43,32.12,2.49-56.43-10.89-34.28-53.5,6.7-43.54,.06-.02,.14-.11,.18-.06-2.85-3.31-9.17-4.77-13.07-4.9-34.89-1.18-60.15,29.46-27.87,45.34"></path><path class="c" d="M315.31,281.3c-13.17,16.69-21.35,45.3-15.37,72.23,45.11-15.53,97.37-29.84,113.05-34.25-21.53,0-52.26-.13-61.88-.13s-32.91-14.49-35.8-37.85"></path><path class="c" d="M370.44,119.63s-34.21-8.5-72.23-24.84l-.95,.12-14.34,24.23s52.91,25.71,71.7,38.07c16.28,10.71,17.8,21.26,17.8,21.26l36.37-52.69-38.35-6.16Zm-34.23,18.53l11.37-16.81,11.68,2.68-13.16,19.59c-3.12-1.76-6.45-3.59-9.89-5.46m25.4,15.05c-.95-.69-1.94-1.39-2.99-2.08-1.87-1.23-4.06-2.58-6.49-4.03l14.49-21.4,11.67,2.67-16.68,24.84Zm4.78,3.82l18.39-27.18,10.67,2.45-22.15,32.09c-1.77-2.31-4.03-4.81-6.92-7.36"></path><path class="c" d="M299,144.47c11.89,8.62,25.57,22.3,34.2,33.7,.12,.15,.24,.29,.35,.43,1.01-1.18,1.95-2.28,2.46-2.84,6.3-8.67-.27-17.26-22.61-31.31-19.53-12.28-40.77-22.2-40.77-22.2l17.89-34.11,40.32-4.83c-13.76-.78-26.7-4.6-36.24-16.51-4.56-6.85-2.28-13.7,2.28-17.12,1.17-1,2.41-2.05,3.72-3.1-14.19,5.05-26.69,14.54-33.89,26.63-6.33,10.62-6.81,22.79-6.45,33.3l.04,1.15c.82,5.12,2.05,10.14,3.46,14.89-3.28-2.63-7-6.31-10.06-10.19-3.1,1.11-6.17,1.99-9.18,2.8-1.47,.52-2.93,.99-4.37,1.38,4.13,1.06,8.37,2.3,12.7,3.77,16.78,5.68,32.18,13.78,46.15,24.17"></path><path class="e" d="M120.27,237.91c3.86,.09,8.5,.49,12.6,2.16,1.76-5.21,4.34-8.8,6.93-13.7-8.46-3.01-14.86-4.02-23.15-5.35,3.5,1.49,4.37,2.82,7.67,4.74-1.66,3.9-2.99,8.15-4.05,12.14"></path><path class="e" d="M145.97,195.61c-5.81,5.73-10.59,11.38-14.46,17.33,4.55,.54,8.51,1.45,12.83,3.64,5.04-7.75,11.09-12.76,17.9-19.14-12.76-5.23-22.01-6.54-29.98-3.63,5.45-.28,6.25,.04,13.72,1.79"></path><path class="e" d="M134.1,289.91c-2.87-3.58-4.24-7.05-5.31-10.63-5.36,3.16-8.77,6.53-13.66,10.87,4.17-1.83,8.01-3.36,8.01-3.36,1.7,3.7,3.55,6.99,5.58,10.09,2.42-1.72,3.73-4.43,6.19-5.88-.41-.54-.4-.53-.81-1.09"></path><path class="e" d="M118.82,275.13c2.59-2,5.77-3.19,9.16-3.88,.05,0-.02-1.04-.02-1.1-.18-8.52,1.02-14.19,3.2-22.33-8-1.93-12.95-2.42-20.92-3.24,5.25,2.29,7.51,4.62,7.51,4.62-1.45,10.29-.79,19.89,1.08,25.93"></path><path class="e" d="M145.86,303.07c-6.12,4.38-10.73,8.96-14.09,12.74,3.52-1.6,6.78-3.16,8.92-4.11,7.64,7.72,17.05,14.31,28.73,20.4,.33-4.27,1.58-8.17,3.61-11.42-10.81-4.43-18.5-9.41-27.17-17.61"></path><path class="e" d="M286.87,339.81c-5.04-8.32-4.86-16.64-6.3-25.31,2.5,3.16,5.12,6.16,7.53,9.33,.43-4.44,1.13-8.65,2.06-12.65-1.13-.77-2.29-1.61-3.37-2.39-4.31-3.11-12.85-9.93-20.57-14.39,3.48,4.76,5.53,11.92,6.9,18.95,1.78,9.16,2.38,18.1,3.44,21.21-4.07,1.12-11.4,8.53-12.54,11.4-7.22-6.19-18.86-13.23-23.21-23.57-2.96,2.17-21.24,13.79-55.15,3.52-4.11,6.44-10.29,12.49-13.71,20.47,2.41-3.37,5.3-6.44,8.16-9.62,13.66,4.95,36.89,5.87,51.3,1.9-1.44,4.28-3,10.55-3.37,16.36,2.01-7.56,5.52-14.8,8.45-22.28,9.82,12.38,16.78,17.84,30.69,25.3,0,0,3.68-12.33,19.69-18.24"></path><path class="e" d="M265.46,177.26c-7.18-5.77-13.6-9.3-22.58-13.01-39.95-14.62-68.91,6.26-84.73,20.28,1.36,.28,2.73,.62,4.11,1.04,3.08,.95,6.28,2.19,9.54,3.65,12.13-8.78,27.43-16.23,41.68-19.52,21.26,3.94,49.78,12.25,51.34,42.62,4.68-10.23,4.89-22.65,1.29-33.28-.07-.21-.15-.42-.22-.62-.14-.39-.27-.77-.42-1.15"></path><path class="e" d="M300.6,312.93c-3.07,12.77-3.7,26.9-.66,40.6,28-8.56,54.08-17.48,74.39-23.28-41.64,0-58.81-.27-73.72-17.31"></path><path class="e" d="M293.19,311.92c.08,.07,.17,.14,.25,.21,.02-.05,.03-.1,.04-.14l-.29-.07Z"></path><path class="e" d="M366.98,329.18c-.31,.09-.61,.17-.92,.27,.63-.01,1.26-.02,1.89-.04l-.96-.22Z"></path><path class="b" d="M500.68,298.7c-35.96,0-48.34-11.92-40.16-38.65l19.55-63.87h39.78l-18.94,61.9c-3.12,10.19-1.78,11.6,11.02,11.6h22.19l22.49-73.5h39.78l-31.37,102.52h-64.32Z"></path><path class="b" d="M341,298.7l31.38-102.52h64.83c26.44,0,34.35,7.83,28.19,27.92l-6.08,19.87h-38.49l4.99-16.3q1.58-5.16-6.55-5.16h-15.18l-23.31,76.18h-39.78Z"></path><path class="b" d="M1098.54,298.7l31.37-102.52h64.83c26.45,0,34.35,7.83,28.2,27.92l-6.08,19.87h-38.49l4.99-16.3q1.57-5.16-6.55-5.16h-15.18l-23.31,76.18h-39.78Z"></path><path class="b" d="M572.73,298.7l8.55-27.94h70.98c11.13,0,11.98-2.76,12.66-4.98,.67-2.17,1.58-5.16-9.55-5.16h-28.87c-28.57,0-42.55-4.91-34.63-30.78,6.93-22.64,24.99-33.64,55.2-33.64h72.27l-8.55,27.95h-60.89c-15.64,0-16.1,1.49-17,4.45-.61,2-1.31,4.27,7.89,4.27h30.16c27.3,0,39.38,11.74,33.11,32.21-6.06,19.8-25.05,33.64-46.18,33.64h-85.15Z"></path><path class="b" d="M738.03,298.69c-25.4,0-36.47-11.41-30.39-31.31,7.33-23.96,25.43-34.18,60.52-34.18h37.36c1.45-6.39-1.38-9.25-19.18-9.25h-57.89l8.5-27.77h69.26c33.73,0,47.39,13.61,39.51,39.36l-19.32,63.15h-88.37Zm28.4-38.44c-12.9,0-14.17,2.2-15.46,6.42-1.13,3.69-1.47,4.8,9.88,4.8h35.5l3.43-11.21h-33.35Z"></path><path class="b" d="M892.1,298.7c-37.67,0-54.15-19.6-44.1-52.42,4.12-13.49,11.89-24.62,23.73-34.04,14.35-11.41,29.91-16.06,53.68-16.06h23.69l10.45-34.15h39.78l-41.82,136.67h-65.4Zm32.05-73.85c-21.43,0-30.04,5.64-35.42,23.23-5.2,16.97-.72,22.15,19.17,22.15h18.53l13.89-45.37h-16.17Z"></path><path class="b" d="M1015.36,298.69c-33.73,0-47.39-13.61-39.51-39.36l7.25-23.78c7.89-25.75,29.88-39.37,63.61-39.37h36.84c25.4,0,36.48,11.41,30.38,31.31-7.33,23.96-25.42,34.18-60.51,34.18h-37.37c-1.44,6.39,1.38,9.25,19.19,9.25h57.89l-8.5,27.76h-69.26Zm42.03-64.06c12.89,0,14.17-2.2,15.46-6.41,1.13-3.69,1.47-4.81-9.88-4.81l-24.14-.03c-11.34,0-11.68,1.11-12.81,4.81l-1.97,6.44h33.34Z"></path><path class="b" d="M235.31,416.44c-34.8,0-67.23-8.57-93.78-24.77-22-13.43-51.26-37.19-65.74-74.11-17.79-45.36-14.66-91.21,8.83-129.11,22.31-36,59.95-59.64,100.69-63.21,3.74-.33,7.72-.5,11.83-.5,30.44,0,87.81,8.86,130,68.18l1.37,1.93,17.96-.25-1.14,1.84c-.76,1.23-1.58,2.5-2.43,3.74-11.65,17.17-26.8,29.37-34.8,35.11l-2,1.44,.12-2.46c.76-15.33-2.92-30.31-10.66-43.33-13.94-23.46-41.63-41.7-72.26-47.61-5.49-1.06-11.21-1.6-17.02-1.6-35.3,0-72.31,20.01-94.28,50.97-25.42,35.83-27.07,78.58-4.52,117.3,2.2,3.78,4.66,7.48,7.3,11.02l2.8,3.59c20.07,24.66,50.77,40.82,88.76,46.72,11.26,1.75,23.03,2.64,34.99,2.64,31.65,0,56.52-6.1,65.75-8.72,15.65-4.45,30.48-9.3,44.82-14l.16-.05c16.56-5.42,39.02-12.56,65.95-19.73,19.99-5.32,41.21-8.02,63.08-8.02,30.22,0,52.93,5.09,61.3,7.27,16.66,4.35,30.04,9.46,39.77,15.17l-.93,2.16c-9.73-2.84-24.73-4.61-39.14-4.61-62.61,0-139.62,29.45-172.5,42.03l-.08,.03c-4.26,1.63-7.63,2.92-10.04,3.78-35.76,12.82-74.25,24.95-113.4,26.87-3.6,.18-7.22,.27-10.77,.27h0Z"></path></g><path class="e" d="M582.44,329.46c6.13,3.03,11.77,6.62,17.94,10.88l514.73-7.72,.95-3.16H582.44Z"></path></svg>