<svg width="24" height="24" viewBox="0 0 24 24" fill="none" xmlns="http://www.w3.org/2000/svg">
<g id="Bell">
<path id="Vector" d="M5.26904 9.75006C5.2678 8.86057 5.44262 7.97963 5.78343 7.15802C6.12424 6.33641 6.6243 5.59037 7.25477 4.96292C7.88525 4.33547 8.63368 3.83901 9.45693 3.50216C10.2802 3.16531 11.1619 2.99473 12.0514 3.00025C15.763 3.02784 18.7317 6.11288 18.7317 9.8348V10.5001C18.7317 13.8578 19.4342 15.8062 20.0529 16.8711C20.1196 16.9849 20.1551 17.1143 20.1558 17.2462C20.1565 17.378 20.1224 17.5077 20.0569 17.6222C19.9915 17.7367 19.8971 17.832 19.7831 17.8983C19.6691 17.9646 19.5397 17.9997 19.4078 18.0001H4.59222C4.46034 17.9997 4.33087 17.9646 4.21689 17.8983C4.1029 17.8319 4.00844 17.7367 3.94301 17.6222C3.87759 17.5076 3.84352 17.3779 3.84425 17.246C3.84498 17.1141 3.88048 16.9848 3.94716 16.871C4.56622 15.806 5.26904 13.8576 5.26904 10.5001L5.26904 9.75006Z" stroke="#1D2026" stroke-width="1.5" stroke-linecap="round" stroke-linejoin="round"/>
<path id="Vector_2" d="M9 18V18.75C9 19.5456 9.31607 20.3087 9.87868 20.8713C10.4413 21.4339 11.2044 21.75 12 21.75C12.7956 21.75 13.5587 21.4339 14.1213 20.8713C14.6839 20.3087 15 19.5456 15 18.75V18" stroke="#1D2026" stroke-width="1.5" stroke-linecap="round" stroke-linejoin="round"/>
</g>
</svg>
