<?xml version="1.0" encoding="utf-8"?>
<!-- Generator: Adobe Illustrator 27.8.0, SVG Export Plug-In . SVG Version: 6.00 Build 0)  -->
<svg version="1.1" xmlns="http://www.w3.org/2000/svg" xmlns:xlink="http://www.w3.org/1999/xlink" x="0px" y="0px"
	 viewBox="0 0 225 102" style="enable-background:new 0 0 225 102;" xml:space="preserve">
<style type="text/css">
	.st0{display:none;}
	.st1{display:inline;}
	.st2{clip-path:url(#SVGID_00000041996076613547009580000006739534640302707390_);}
	.st3{clip-path:url(#SVGID_00000041996076613547009580000006739534640302707390_);fill:#FFFFFF;}
	.st4{clip-path:url(#SVGID_00000041996076613547009580000006739534640302707390_);fill:#B1B3B6;}
	.st5{clip-path:url(#SVGID_00000041996076613547009580000006739534640302707390_);fill:#808285;}
	.st6{fill:#231F20;}
	.st7{fill:#FFFFFF;}
	.st8{fill:#B0B1B4;}
	.st9{fill:#818182;}
</style>
<g id="Layer_1" class="st0">
	<g class="st1">
		<defs>
			<rect id="SVGID_1_" x="50.03" y="27.53" width="124.93" height="46.94"/>
		</defs>
		<clipPath id="SVGID_00000041266328788121112880000003138571042577587640_">
			<use xlink:href="#SVGID_1_"  style="overflow:visible;"/>
		</clipPath>
		<path style="clip-path:url(#SVGID_00000041266328788121112880000003138571042577587640_);" d="M141.29,60.36
			c-0.23,0-0.42,0.07-0.57,0.22c-0.15,0.15-0.27,0.39-0.37,0.73c-0.09,0.29-0.1,0.5-0.04,0.62c0.06,0.12,0.21,0.18,0.45,0.18h0.92
			l-0.14,0.46h-0.95c-0.21,0-0.37-0.02-0.48-0.05c-0.11-0.04-0.2-0.1-0.28-0.18c-0.1-0.11-0.16-0.25-0.18-0.42
			c-0.02-0.17,0.01-0.38,0.09-0.63c0.14-0.47,0.35-0.82,0.62-1.04c0.27-0.22,0.62-0.34,1.05-0.34h0.93l-0.14,0.45H141.29z"/>
		<path style="clip-path:url(#SVGID_00000041266328788121112880000003138571042577587640_);" d="M143.82,59.9h0.59l0.34,2.66h-0.62
			l-0.05-0.63h-1.16l-0.43,0.63h-0.59L143.82,59.9z M143.93,60.43l-0.7,1.02h0.79L143.93,60.43z"/>
		<path style="clip-path:url(#SVGID_00000041266328788121112880000003138571042577587640_);" d="M145.84,59.9h1.38
			c0.32,0,0.54,0.06,0.65,0.19c0.11,0.13,0.13,0.33,0.04,0.61c-0.06,0.2-0.16,0.37-0.29,0.5c-0.13,0.13-0.29,0.21-0.47,0.25
			l0.33,1.11h-0.63l-0.27-1.05h-0.66l-0.31,1.05h-0.56L145.84,59.9z M146.95,60.38h-0.69l-0.2,0.67h0.69c0.19,0,0.32-0.03,0.41-0.08
			c0.09-0.05,0.15-0.14,0.19-0.26c0.04-0.12,0.03-0.21-0.03-0.26C147.26,60.4,147.14,60.38,146.95,60.38"/>
		<path style="clip-path:url(#SVGID_00000041266328788121112880000003138571042577587640_);" d="M149.65,59.9h0.59l0.34,2.66h-0.62
			l-0.05-0.63h-1.16l-0.43,0.63h-0.59L149.65,59.9z M149.76,60.43l-0.7,1.02h0.79L149.76,60.43z"/>
		<polygon style="clip-path:url(#SVGID_00000041266328788121112880000003138571042577587640_);" points="151.27,62.56 150.91,59.9 
			151.55,59.9 151.75,61.88 153.17,59.9 153.76,59.9 151.85,62.56 		"/>
		<path style="clip-path:url(#SVGID_00000041266328788121112880000003138571042577587640_);" d="M154.63,59.9h0.59l0.34,2.66h-0.62
			l-0.05-0.63h-1.16l-0.43,0.63h-0.59L154.63,59.9z M154.75,60.43l-0.7,1.02h0.79L154.75,60.43z"/>
		<polygon style="clip-path:url(#SVGID_00000041266328788121112880000003138571042577587640_);" points="156.66,59.9 157.37,59.9 
			157.88,61.81 158.43,59.9 159,59.9 158.2,62.56 157.56,62.56 157.01,60.55 156.44,62.56 155.86,62.56 		"/>
		<path style="clip-path:url(#SVGID_00000041266328788121112880000003138571042577587640_);" d="M161.8,60.38h-1.38
			c-0.15,0-0.27,0.03-0.35,0.08c-0.09,0.06-0.15,0.14-0.18,0.26c-0.03,0.1-0.02,0.17,0.02,0.22c0.04,0.05,0.13,0.07,0.24,0.07h0.74
			c0.31,0,0.51,0.06,0.6,0.17c0.09,0.12,0.1,0.31,0.02,0.58c-0.08,0.27-0.22,0.48-0.41,0.6c-0.19,0.13-0.44,0.19-0.76,0.19h-1.49
			l0.14-0.47h1.4c0.16,0,0.28-0.02,0.36-0.07c0.08-0.05,0.13-0.12,0.17-0.23c0.03-0.11,0.03-0.19-0.02-0.24
			c-0.05-0.05-0.14-0.07-0.29-0.07h-0.66c-0.31,0-0.51-0.06-0.62-0.18s-0.12-0.32-0.04-0.58c0.08-0.28,0.22-0.49,0.41-0.62
			c0.19-0.13,0.44-0.2,0.77-0.2h1.46L161.8,60.38z"/>
		<path style="clip-path:url(#SVGID_00000041266328788121112880000003138571042577587640_);" d="M76.96,71.4
			c-3.54,0-6.86-0.88-9.58-2.54c-3.24-1.98-5.59-4.63-6.78-7.68c-1.84-4.7-1.51-9.48,0.95-13.44c1-1.62,2.34-3.04,3.89-4.14
			c-0.16,0.01-0.32,0.02-0.48,0.02c-0.55,0-1.59-0.06-2.15-0.18c-1.46-0.32-2.67-1.07-3.61-2.23c-0.06,0-0.12,0-0.18,0
			c-1.2,0-2.34-0.4-3.13-1.09c-1.08-0.96-1.46-2.77-0.84-4.04c0.43-0.88,1.31-1.37,2.48-1.37c0.74,0,1.43,0.2,1.6,0.35l0.22,0.19
			l-0.3,0.01C58.65,35.28,58,35.66,57.84,36c-0.08,0.15-0.02,0.23,0,0.26c0.03,0.04,0.07,0.06,0.13,0.06c0.19,0,0.53-0.19,1.01-0.56
			c0.4-0.31,0.86-0.67,1.59-0.75c0.13-0.01,0.26-0.02,0.39-0.02c0.1,0,0.2,0,0.31,0.01c-0.19-1.07,0.01-1.97,0.59-2.69
			c0.97-1.2,2.84-1.62,4.15-1.62c0.22,0,0.42,0.01,0.6,0.03c2.2,0.28,3.16,1.75,3.2,1.81l0.14,0.22l-0.25-0.04
			c0,0-0.38-0.05-0.79-0.05c-0.67,0-0.85,0.14-0.89,0.2c-0.02,0.03-0.04,0.08-0.01,0.18c0.03,0.07,0.17,0.11,0.4,0.11
			c0.66,0,1.87-0.34,2.79-0.67l0.08-0.03c0.06-0.02,0.12-0.05,0.18-0.07c2.71-0.92,5.26-1.38,7.58-1.38c4.74,0,7.35,1.92,8.49,3.07
			c1.71,0.58,3.03,1.82,3.94,3.69L92,37.71l2.8,4.56l-5.41,7.25l-0.03-0.3c0,0-0.02-0.23-0.13-0.58c-1.26,2.97-4.15,5.64-7.43,6.84
			l-0.23,0.08l0.34-1.07c0.58-1.82,0.43-3.51-0.45-5.01c0.11,1.97-1.24,4.14-2.68,5.28l-0.18-0.14c0.16-0.32,0.32-0.67,0.44-1.05
			c-0.88,0.91-2.65,2.37-5.02,2.48c0.43,0.19,0.88,0.28,1.36,0.28c0.89,0,1.8-0.33,2.51-0.92l0.18,0.15
			c-0.48,0.92-1.33,1.41-2.11,1.82c0.18,0.11,0.36,0.23,0.54,0.33c0.15,0.09,0.31,0.19,0.46,0.28c0.44,0.28,1.06,0.63,1.21,0.68
			c1.19-0.75,1.3-1.49,1.3-1.49L79.5,57l0.16,0.09c0.89,0.54,1.83,1.16,2.72,1.77c0.9-2.42,2.5-3.69,2.57-3.74l0.2-0.16l-0.01,0.25
			c-0.07,2.45,1.49,4.51,2.88,4.64h50.92l-0.77,2.71l-26.02,1.28c0.21,0.52,0.23,1.28-0.22,1.9l-0.06,0.08l-0.09-0.05
			c-1.59-0.83-3.57-1.28-5.9-1.28c-6.02,0-12.89,2.75-16.57,4.21l-0.13,0.05c-3.28,1.16-7.12,2.42-11.11,2.62
			C77.68,71.39,77.32,71.4,76.96,71.4 M88.78,47.63c-0.14-0.24-0.31-0.46-0.49-0.66c-0.31,0.08-0.65,0.38-0.92,0.66H88.78z
			 M73.36,41.05c0.23,0,0.47,0.01,0.7,0.02c0.32-0.66,1.05-1.31,1.67-1.48l0.2-0.05l-0.05,0.2c-0.08,0.3-0.06,0.52,0.05,0.67
			c0.12,0.16,0.36,0.23,0.72,0.23c0.41,0,0.97-0.11,1.69-0.32c0-0.89,0.08-2.02,0.69-3.1c-1.23,0.29-2.45,1.18-3.85,2.21
			c-0.74,0.54-1.5,1.1-2.35,1.64C72.99,41.06,73.17,41.05,73.36,41.05"/>
		<path style="clip-path:url(#SVGID_00000041266328788121112880000003138571042577587640_);fill:#FFFFFF;" d="M109.95,64.16
			c0.24,0.06,0.48,0.13,0.71,0.21c0.19,0.06,0.4,0.13,0.63,0.22c0.03-0.08,0.02-0.16,0.01-0.22c-0.11-0.58-1.33-1.85-5.27-2.87
			c-1.33-0.35-7.08-1.34-11.95,0.07c-2.49,0.72-4.33,1.24-6.25,1.87c-1.35,0.44-2.75,0.9-4.23,1.32c-1.07,0.3-4.92,1.25-9.32,0.56
			c-3.64-0.57-6.48-2.12-8.31-4.51c0,0-0.01,0-0.01,0l-0.02-0.04c-0.25-0.33-0.48-0.67-0.69-1.04c-2.04-3.5-1.89-7.37,0.41-10.61
			c2.36-3.33,6.51-5.18,10.07-4.49c2.77,0.54,5.28,2.18,6.53,4.29c0.89,1.49,1.16,3.18,0.81,4.95c1.31-0.74,3.13-2.23,4.37-4.05v0
			c0.26-0.39,0.5-0.79,0.7-1.2l-2.19,0.03c-4.83-6.79-11.76-6.74-13.77-6.56c-3.98,0.35-7.65,2.65-9.82,6.16
			c-2.29,3.69-2.6,8.15-0.87,12.56c1.41,3.59,4.25,5.9,6.38,7.2c2.85,1.74,6.34,2.56,10.11,2.37c3.75-0.18,7.42-1.34,10.82-2.56
			c3.02-1.08,10.97-4.28,16.73-4.28C107.57,63.55,109.07,63.88,109.95,64.16"/>
		<path style="clip-path:url(#SVGID_00000041266328788121112880000003138571042577587640_);fill:#FFFFFF;" d="M71.74,33.26
			c-0.08,0.03-0.17,0.06-0.25,0.09c-1.27,0.47-2.71,1-3.92,0.48c-0.78-0.33-0.89-0.75-0.84-1.03c0.06-0.35,0.38-0.62,0.89-0.78
			c0,0,0,0,0,0c0,0,0,0,0,0c0.01,0,0.01,0,0.02-0.01c0,0,0,0,0,0c-0.12-0.14-0.3-0.24-0.5-0.31c-0.25-0.1-0.52-0.14-0.74-0.15
			c-3.29-0.11-5.68,2.78-2.63,4.28c0,0,0,0,0,0c0.06,0.02,0.11,0.04,0.18,0.06c0.22,0.07,0.44,0.12,0.66,0.16c0.01,0,0.02,0,0.02,0
			c0.03,0.01,0.07,0.01,0.11,0.02c0.05,0.01,0.09,0.01,0.14,0.02c0,0,0.01,0,0.01,0c2.72,0.39,5.72-0.81,5.72-0.81
			c-1.94,1.35-3.68,2.22-6.86,1.36c-0.37-0.1-0.72-0.21-1.06-0.33c-0.32-0.11-0.63-0.22-0.95-0.3l-0.02,0.01
			c0-0.01-0.01-0.01-0.01-0.02c-0.35-0.08-0.71-0.13-1.08-0.09c-0.48,0.05-0.78,0.29-1.13,0.56c-0.3,0.23-0.64,0.49-1.1,0.63
			c-0.79,0.24-1.26-0.1-1.42-0.47c-0.13-0.29-0.11-0.66,0.09-1.01c-0.23,0.02-0.43,0.08-0.6,0.18c0,0-0.01,0.01-0.01,0.01
			c-0.02,0.01-0.04,0.03-0.07,0.04c-0.01,0.01-0.02,0.01-0.03,0.02c-0.02,0.01-0.03,0.02-0.05,0.04c-0.03,0.02-0.05,0.04-0.08,0.06
			c0,0,0,0,0,0c-0.03,0.03-0.07,0.07-0.1,0.11c0,0-0.01,0.01-0.01,0.01c-0.03,0.04-0.06,0.07-0.09,0.11c0,0-0.01,0.01-0.01,0.01
			c-0.03,0.04-0.05,0.09-0.08,0.13c-0.02,0.05-0.05,0.09-0.06,0.14c0,0.01-0.01,0.02-0.01,0.03c-0.18,0.49-0.16,1.11,0.04,1.68
			c0.02,0.05,0.04,0.1,0.06,0.16c0.15,0.36,0.36,0.69,0.64,0.93c0.86,0.76,1.99,0.98,3.05,0.94c1.04-0.03,3.18-1.17,4.18-0.89
			c0.55,0.15,0.78,0.5,0.83,0.78c0,0,0,0,0,0c0,0.01,0,0.03,0,0.04c0,0.01,0,0.02,0,0.03c0.01,0.07,0,0.13-0.01,0.18
			c-0.01,0.04-0.02,0.09-0.04,0.13c0,0,0,0,0,0c0,0,0,0,0,0c-0.43,1.27-2.27,0.86-2.48,0.84c0.76-0.11,1.75-0.52,1.46-1.04
			c0,0,0,0,0,0c0,0,0,0,0,0c-0.13-0.24-0.38-0.33-0.68-0.32c-0.52,0-1.19,0.31-1.69,0.53c-0.02,0.01-0.05,0.02-0.07,0.03
			c-0.16,0.07-0.31,0.14-0.47,0.2c-0.08,0.03-0.16,0.06-0.23,0.09c0.93,1.05,2.07,1.57,3.23,1.76c0.08,0.01,0.16,0.02,0.23,0.03
			c0.74,0.1,1.48,0.07,2.2-0.03c0.51-0.07,1-0.17,1.46-0.29c0.72-0.19,1.4-0.43,2.04-0.71c0.09-0.04,0.18-0.08,0.27-0.12
			c2.41-1.1,4.37-2.7,6.2-3.88c0.06-0.04,0.12-0.08,0.17-0.11c1.19-0.76,2.33-1.33,3.51-1.45c0.08-0.01,0.16-0.01,0.24-0.02
			c0.09-0.09,0.17-0.17,0.26-0.26c0.05-0.05,0.11-0.1,0.16-0.15c0.4-0.34,0.84-0.64,1.31-0.9c1.13-0.6,2.42-0.92,3.72-0.87
			c0.17,0.01,0.34,0.02,0.5,0.04C83.54,32.22,78.71,31.03,71.74,33.26"/>
		<path style="clip-path:url(#SVGID_00000041266328788121112880000003138571042577587640_);fill:#FFFFFF;" d="M82.56,36.99
			c0.9,1.12,2.12,1.48,3.42,1.56l4.49-0.54c-1.09-2.1-2.76-3.22-4.98-3.3c-0.8-0.03-1.61,0.1-2.37,0.37
			c-0.12,0.1-0.24,0.2-0.35,0.29C82.34,35.7,82.13,36.35,82.56,36.99"/>
		<path style="clip-path:url(#SVGID_00000041266328788121112880000003138571042577587640_);fill:#FFFFFF;" d="M93.49,41.91
			l-1.91-3.34l-8.77,1.07l-1.35,2.29c0,0,4.99,2.43,6.76,3.59c1.54,1.01,1.68,2.01,1.68,2.01l3.43-4.97l-3.62-0.58L93.49,41.91z
			 M86.87,39.69l4.29-0.05l0.98,1.59l-5.6-0.61L86.87,39.69z M86.48,43.73l1.07-1.59l1.1,0.25l-1.24,1.85
			C87.12,44.08,86.81,43.9,86.48,43.73 M92.07,43.18l-2.09,3.03c-0.17-0.22-0.38-0.45-0.65-0.69l1.74-2.56L92.07,43.18z
			 M90.45,42.81l-1.57,2.34c-0.09-0.07-0.18-0.13-0.28-0.2c-0.18-0.12-0.38-0.24-0.61-0.38l1.37-2.02L90.45,42.81z"/>
		<path style="clip-path:url(#SVGID_00000041266328788121112880000003138571042577587640_);fill:#B1B3B6;" d="M72.56,56.91
			c-0.33-0.54-0.41-1.35,0.51-1.68c-0.21-0.13-0.38-0.46-0.6-0.59c0.84-0.59,1.64-1.31,2.46-1.94c-1.62-1.97-5.78-4.42-7.7-3.72
			c0.51-0.03,0.59,0,1.29,0.17c-0.55,0.54-1,1.07-1.36,1.64c1.89,0.79,3.61,1.71,4.76,3.34c-2.06-1.49-3.86-2.21-6.17-2.58
			c0.33,0.14,0.41,0.27,0.72,0.45c-0.16,0.37-0.28,0.77-0.38,1.15c1.3,0.39,1.97,0.77,2.9,1.56c-1.51-0.6-2.26-0.77-3.85-0.93
			c0.5,0.22,0.71,0.44,0.71,0.44c-0.14,0.97-0.07,1.88,0.1,2.45c0.85-0.19,1.39-0.17,2.18-0.1c-1.17,0.29-1.64,0.73-2.53,1.52
			c0.39-0.17,0.76-0.32,0.76-0.32c0.16,0.35,0.33,0.66,0.53,0.95C68.94,57.26,71.23,56.87,72.56,56.91"/>
		<path style="clip-path:url(#SVGID_00000041266328788121112880000003138571042577587640_);fill:#B1B3B6;" d="M73.54,58.29
			c-0.19-0.16-0.38-0.33-0.56-0.5c-3.15,0.17-4.91,1.72-5.79,2.7c0.33-0.15,0.64-0.3,0.84-0.39c0.72,0.73,1.61,1.35,2.71,1.93
			C71.59,60.41,72.62,59.16,73.54,58.29"/>
		<path style="clip-path:url(#SVGID_00000041266328788121112880000003138571042577587640_);fill:#B1B3B6;" d="M81.83,62.75
			c-0.48-0.76-0.46-1.57-0.59-2.39c0.24,0.3,0.48,0.58,0.71,0.88c0.04-0.42,0.11-0.82,0.19-1.19c-0.73-0.5-1.49-1.14-2.26-1.58
			c-0.12,0.6-1.83,1.64-1.83,1.64l-0.38-0.26c-0.48-0.32-0.95-0.65-1.41-0.98c-0.39-0.28-0.79-0.56-1.19-0.84
			c-1.15,0.84-2.92,2.61-4.08,5.34c0.23-0.32,0.5-0.61,0.77-0.91c1.29,0.47,3.48,0.55,4.84,0.18c-0.14,0.4-0.28,1-0.32,1.54
			c0.19-0.71,0.52-1.4,0.8-2.1c0.93,1.17,1.58,1.68,2.9,2.39C79.97,64.48,80.34,63.28,81.83,62.75"/>
		<path style="clip-path:url(#SVGID_00000041266328788121112880000003138571042577587640_);fill:#B1B3B6;" d="M75.93,52.97
			c-1.02-2.07-3.74-4.11-5.86-4.77c-0.13-0.04-0.26-0.07-0.39-0.1c1.49-1.32,4.22-3.29,7.99-1.91c0.85,0.35,1.45,0.68,2.13,1.23
			c0.67,1.75,0.22,4.1-1.7,4.94C78.1,52.35,77.01,52.83,75.93,52.97"/>
		<path style="clip-path:url(#SVGID_00000041266328788121112880000003138571042577587640_);fill:#B1B3B6;" d="M106.67,60.85
			c2.2,0.37,3.32,0.98,4.73,1.95l25.8-1.1l0.2-0.86H106.67z"/>
		<path style="clip-path:url(#SVGID_00000041266328788121112880000003138571042577587640_);fill:#B1B3B6;" d="M79.89,35.24
			c-3.95-0.7-5.76,2.1-10.15,4.77c-1.17,0.71-2.72,1.53-4.03,1.31c0,0,0,0,0.01-0.01c1.41-2.25-1.08-3.9-3.19-3.43
			c-1.71,0.38-2.81,1.91-4.92,1.21c-1.27-0.64-1.9-2.24-0.65-3.44c-0.28,0.05-0.51,0.16-0.69,0.33c0,0,0,0,0,0
			c-0.04,0.03-0.07,0.07-0.1,0.11c0,0-0.01,0.01-0.01,0.01c-0.03,0.04-0.06,0.07-0.09,0.12c0,0-0.01,0.01-0.01,0.01
			c-0.03,0.04-0.05,0.09-0.08,0.13c-0.02,0.05-0.04,0.1-0.06,0.14c0,0.01-0.01,0.02-0.01,0.03c-0.18,0.49-0.16,1.11,0.04,1.68
			c0.15,0.42,0.38,0.81,0.7,1.09c0.86,0.76,1.99,0.98,3.05,0.94c1.04-0.03,3.18-1.17,4.18-0.89c0.55,0.15,0.78,0.5,0.83,0.78
			c0,0,0,0,0,0c0,0.01,0,0.03,0.01,0.04c0,0.01,0,0.02,0,0.03c0.01,0.07,0,0.13-0.01,0.18c-0.01,0.04-0.02,0.09-0.04,0.13
			c0,0,0,0,0,0c0,0,0,0,0,0c-0.43,1.27-2.27,0.86-2.48,0.84c0.76-0.11,1.75-0.52,1.46-1.04c0,0,0,0,0,0c0,0,0,0,0,0
			c-0.13-0.24-0.38-0.33-0.68-0.32c-0.53,0.01-1.19,0.31-1.69,0.53c-0.02,0.01-0.05,0.02-0.07,0.03c-0.16,0.07-0.31,0.14-0.47,0.2
			c-0.08,0.03-0.16,0.06-0.23,0.09c0.93,1.05,2.07,1.57,3.23,1.76c0.08,0.01,0.16,0.02,0.23,0.03c0.74,0.1,1.48,0.07,2.2-0.03
			c0.51-0.07,1-0.17,1.46-0.29c0.82-0.22,1.59-0.5,2.32-0.83c2.41-1.1,4.37-2.7,6.2-3.88c0.06-0.04,0.12-0.07,0.17-0.11
			c1.27-0.81,2.48-1.4,3.74-1.47c0.09-0.09,0.17-0.17,0.26-0.26c0.05-0.05,0.11-0.1,0.16-0.14c0.04-0.03,0.08-0.07,0.12-0.1
			C80.43,35.39,80.23,35.31,79.89,35.24"/>
		<path style="clip-path:url(#SVGID_00000041266328788121112880000003138571042577587640_);fill:#B1B3B6;" d="M63.78,35.83
			c0.06,0.02,0.12,0.04,0.18,0.06c0.98,0.3,2.04,0.32,3.03,0.24c-5.32-1.03-3.23-5.05,0.63-4.11c0.01,0,0.01-0.01,0.02-0.01
			c-0.27-0.31-0.87-0.45-1.23-0.46C63.12,31.44,60.74,34.33,63.78,35.83"/>
		<path style="clip-path:url(#SVGID_00000041266328788121112880000003138571042577587640_);fill:#B1B3B6;" d="M84.51,57.23
			c-1.24,1.57-2.01,4.27-1.45,6.81c4.26-1.47,9.19-2.82,10.67-3.23c-2.03,0-4.93-0.01-5.84-0.01
			C86.98,60.81,84.78,59.44,84.51,57.23"/>
		<path style="clip-path:url(#SVGID_00000041266328788121112880000003138571042577587640_);fill:#B1B3B6;" d="M89.71,41.98
			c0,0-3.23-0.8-6.82-2.34l-0.09,0.01l-1.35,2.29c0,0,4.99,2.43,6.76,3.59c1.54,1.01,1.68,2.01,1.68,2.01l3.43-4.97L89.71,41.98z
			 M86.48,43.73l1.07-1.59l1.1,0.25l-1.24,1.85C87.12,44.08,86.81,43.9,86.48,43.73 M88.88,45.15c-0.09-0.07-0.18-0.13-0.28-0.2
			c-0.18-0.12-0.38-0.24-0.61-0.38l1.37-2.02l1.1,0.25L88.88,45.15z M89.33,45.51l1.74-2.56l1.01,0.23l-2.09,3.03
			C89.81,45.99,89.6,45.75,89.33,45.51"/>
		<path style="clip-path:url(#SVGID_00000041266328788121112880000003138571042577587640_);fill:#B1B3B6;" d="M82.97,44.32
			c1.12,0.81,2.41,2.1,3.23,3.18c0.01,0.01,0.02,0.03,0.03,0.04c0.1-0.11,0.18-0.22,0.23-0.27c0.59-0.82-0.03-1.63-2.13-2.95
			c-1.84-1.16-3.85-2.1-3.85-2.1l1.69-3.22l3.8-0.46c-1.3-0.07-2.52-0.43-3.42-1.56c-0.43-0.65-0.22-1.29,0.22-1.62
			c0.11-0.09,0.23-0.19,0.35-0.29c-1.34,0.48-2.52,1.37-3.2,2.51c-0.6,1-0.64,2.15-0.61,3.14l0,0.11c0.08,0.48,0.19,0.96,0.33,1.4
			c-0.31-0.25-0.66-0.59-0.95-0.96c-0.29,0.1-0.58,0.19-0.87,0.26c-0.14,0.05-0.28,0.09-0.41,0.13c0.39,0.1,0.79,0.22,1.2,0.36
			C80.2,42.58,81.65,43.34,82.97,44.32"/>
		<path style="clip-path:url(#SVGID_00000041266328788121112880000003138571042577587640_);fill:#808285;" d="M66.11,53.14
			c0.36,0.01,0.8,0.05,1.19,0.2c0.17-0.49,0.41-0.83,0.65-1.29c-0.8-0.28-1.4-0.38-2.18-0.5c0.33,0.14,0.41,0.27,0.72,0.45
			C66.33,52.36,66.21,52.76,66.11,53.14"/>
		<path style="clip-path:url(#SVGID_00000041266328788121112880000003138571042577587640_);fill:#808285;" d="M68.53,49.15
			c-0.55,0.54-1,1.07-1.36,1.64c0.43,0.05,0.8,0.14,1.21,0.34c0.48-0.73,1.05-1.2,1.69-1.81c-1.2-0.49-2.08-0.62-2.83-0.34
			C67.75,48.95,67.83,48.98,68.53,49.15"/>
		<path style="clip-path:url(#SVGID_00000041266328788121112880000003138571042577587640_);fill:#808285;" d="M67.41,58.05
			c-0.27-0.34-0.4-0.67-0.5-1c-0.51,0.3-0.83,0.62-1.29,1.03c0.39-0.17,0.76-0.32,0.76-0.32c0.16,0.35,0.33,0.66,0.53,0.95
			c0.23-0.16,0.35-0.42,0.58-0.55C67.45,58.1,67.45,58.1,67.41,58.05"/>
		<path style="clip-path:url(#SVGID_00000041266328788121112880000003138571042577587640_);fill:#808285;" d="M65.97,56.65
			c0.24-0.19,0.54-0.3,0.86-0.37c0,0,0-0.1,0-0.1c-0.02-0.8,0.1-1.34,0.3-2.11c-0.75-0.18-1.22-0.23-1.97-0.31
			c0.5,0.22,0.71,0.44,0.71,0.44C65.73,55.18,65.79,56.08,65.97,56.65"/>
		<path style="clip-path:url(#SVGID_00000041266328788121112880000003138571042577587640_);fill:#808285;" d="M68.52,59.29
			c-0.58,0.41-1.01,0.85-1.33,1.2c0.33-0.15,0.64-0.3,0.84-0.39c0.72,0.73,1.61,1.35,2.71,1.93c0.03-0.4,0.15-0.77,0.34-1.08
			C70.06,60.53,69.34,60.06,68.52,59.29"/>
		<path style="clip-path:url(#SVGID_00000041266328788121112880000003138571042577587640_);fill:#808285;" d="M81.83,62.75
			c-0.48-0.78-0.46-1.57-0.59-2.39c0.24,0.3,0.48,0.58,0.71,0.88c0.04-0.42,0.11-0.82,0.19-1.19c-0.11-0.07-0.22-0.15-0.32-0.23
			c-0.41-0.29-1.21-0.94-1.94-1.36c0.33,0.45,0.52,1.12,0.65,1.79c0.17,0.86,0.22,1.71,0.32,2c-0.38,0.11-1.08,0.8-1.18,1.08
			c-0.68-0.58-1.78-1.25-2.19-2.22c-0.28,0.21-2,1.3-5.2,0.33c-0.39,0.61-0.97,1.18-1.29,1.93c0.23-0.32,0.5-0.61,0.77-0.91
			c1.29,0.47,3.48,0.55,4.84,0.18c-0.14,0.4-0.28,1-0.32,1.54c0.19-0.71,0.52-1.4,0.8-2.1c0.93,1.17,1.58,1.68,2.9,2.39
			C79.97,64.48,80.32,63.31,81.83,62.75"/>
		<path style="clip-path:url(#SVGID_00000041266328788121112880000003138571042577587640_);fill:#808285;" d="M79.81,47.42
			c-0.68-0.54-1.28-0.88-2.13-1.23c-3.77-1.38-6.5,0.59-7.99,1.91c0.13,0.03,0.26,0.06,0.39,0.1c0.29,0.09,0.59,0.21,0.9,0.34
			c1.14-0.83,2.59-1.53,3.93-1.84c2.01,0.37,4.7,1.16,4.84,4.02c0.44-0.97,0.46-2.14,0.12-3.14c-0.01-0.02-0.01-0.04-0.02-0.06
			C79.83,47.49,79.82,47.45,79.81,47.42"/>
		<path style="clip-path:url(#SVGID_00000041266328788121112880000003138571042577587640_);fill:#808285;" d="M83.12,60.22
			c-0.29,1.21-0.35,2.54-0.06,3.83c2.64-0.81,5.1-1.65,7.02-2.2C86.15,61.85,84.53,61.83,83.12,60.22"/>
		<path style="clip-path:url(#SVGID_00000041266328788121112880000003138571042577587640_);fill:#808285;" d="M82.42,60.12
			c0.01,0.01,0.02,0.01,0.02,0.02c0,0,0-0.01,0-0.01L82.42,60.12z"/>
		<path style="clip-path:url(#SVGID_00000041266328788121112880000003138571042577587640_);fill:#808285;" d="M89.38,61.75
			c-0.03,0.01-0.06,0.02-0.09,0.03c0.06,0,0.12,0,0.18,0L89.38,61.75z"/>
		<path style="clip-path:url(#SVGID_00000041266328788121112880000003138571042577587640_);" d="M102,58.88
			c-3.39,0-4.56-1.12-3.79-3.65l1.84-6.03h3.75l-1.79,5.84c-0.29,0.96-0.17,1.09,1.04,1.09h2.09l2.12-6.93h3.75l-2.96,9.67H102z"/>
		<path style="clip-path:url(#SVGID_00000041266328788121112880000003138571042577587640_);" d="M86.93,58.88l2.96-9.67h6.12
			c2.49,0,3.24,0.74,2.66,2.63l-0.57,1.88h-3.63l0.47-1.54c0.15-0.49,0.15-0.49-0.62-0.49h-1.43l-2.2,7.19H86.93z"/>
		<path style="clip-path:url(#SVGID_00000041266328788121112880000003138571042577587640_);" d="M158.41,58.88l2.96-9.67h6.12
			c2.5,0,3.24,0.74,2.66,2.63l-0.57,1.88h-3.63l0.47-1.54c0.15-0.49,0.15-0.49-0.62-0.49h-1.43l-2.2,7.19H158.41z"/>
		<path style="clip-path:url(#SVGID_00000041266328788121112880000003138571042577587640_);" d="M108.8,58.88l0.81-2.64h6.7
			c1.05,0,1.13-0.26,1.19-0.47c0.06-0.21,0.15-0.49-0.9-0.49h-2.72c-2.7,0-4.01-0.46-3.27-2.9c0.65-2.14,2.36-3.17,5.21-3.17h6.82
			l-0.81,2.64h-5.75c-1.48,0-1.52,0.14-1.6,0.42c-0.06,0.19-0.12,0.4,0.74,0.4h2.85c2.58,0,3.72,1.11,3.12,3.04
			c-0.57,1.87-2.36,3.17-4.36,3.17H108.8z"/>
		<path style="clip-path:url(#SVGID_00000041266328788121112880000003138571042577587640_);" d="M124.39,58.88
			c-2.4,0-3.44-1.08-2.87-2.95c0.69-2.26,2.4-3.23,5.71-3.23h3.52c0.14-0.6-0.13-0.87-1.81-0.87h-5.46l0.8-2.62h6.53
			c3.18,0,4.47,1.28,3.73,3.71l-1.82,5.96H124.39z M127.07,55.25c-1.22,0-1.34,0.21-1.46,0.61c-0.11,0.35-0.14,0.45,0.93,0.45h3.35
			l0.32-1.06H127.07z"/>
		<path style="clip-path:url(#SVGID_00000041266328788121112880000003138571042577587640_);" d="M138.93,58.88
			c-3.55,0-5.11-1.85-4.16-4.95c0.39-1.27,1.12-2.32,2.24-3.21c1.35-1.08,2.82-1.51,5.06-1.51h2.23l0.99-3.22h3.75l-3.95,12.89
			H138.93z M141.95,51.91c-2.02,0-2.83,0.53-3.34,2.19c-0.49,1.6-0.07,2.09,1.81,2.09h1.75l1.31-4.28H141.95z"/>
		<path style="clip-path:url(#SVGID_00000041266328788121112880000003138571042577587640_);" d="M150.56,58.88
			c-3.18,0-4.47-1.28-3.73-3.71l0.68-2.24c0.74-2.43,2.82-3.71,6-3.71h3.48c2.4,0,3.44,1.08,2.87,2.95
			c-0.69,2.26-2.4,3.23-5.71,3.23h-3.53c-0.14,0.6,0.13,0.87,1.81,0.87h5.46l-0.8,2.62H150.56z M154.53,52.83
			c1.22,0,1.34-0.21,1.46-0.6c0.11-0.35,0.14-0.45-0.93-0.45l-2.28,0c-1.07,0-1.1,0.11-1.21,0.45l-0.19,0.61H154.53z"/>
		<path style="clip-path:url(#SVGID_00000041266328788121112880000003138571042577587640_);" d="M76.96,69.98
			c-3.28,0-6.34-0.81-8.85-2.34c-2.08-1.27-4.84-3.51-6.2-6.99c-1.68-4.28-1.38-8.61,0.83-12.18c2.11-3.4,5.66-5.63,9.5-5.96
			c0.35-0.03,0.73-0.05,1.12-0.05c2.87,0,8.28,0.84,12.27,6.43l0.13,0.18l1.69-0.02l-0.11,0.17c-0.07,0.12-0.15,0.24-0.23,0.35
			c-1.1,1.62-2.53,2.77-3.28,3.31l-0.19,0.14l0.01-0.23c0.07-1.45-0.28-2.86-1.01-4.09c-1.32-2.21-3.93-3.93-6.82-4.49
			c-0.52-0.1-1.06-0.15-1.61-0.15c-3.33,0-6.82,1.89-8.9,4.81c-2.4,3.38-2.55,7.41-0.43,11.07c0.21,0.36,0.44,0.71,0.69,1.04
			l0.26,0.34c1.89,2.33,4.79,3.85,8.37,4.41c1.06,0.16,2.17,0.25,3.3,0.25c2.99,0,5.33-0.58,6.2-0.82c1.48-0.42,2.88-0.88,4.23-1.32
			l0.02,0c1.56-0.51,3.68-1.18,6.22-1.86c1.89-0.5,3.89-0.76,5.95-0.76c2.85,0,4.99,0.48,5.78,0.69c1.57,0.41,2.83,0.89,3.75,1.43
			l-0.09,0.2c-0.92-0.27-2.33-0.43-3.69-0.43c-5.91,0-13.17,2.78-16.28,3.97l-0.01,0c-0.4,0.15-0.72,0.28-0.95,0.36
			c-3.37,1.21-7.01,2.35-10.7,2.53C77.64,69.98,77.3,69.98,76.96,69.98L76.96,69.98z"/>
	</g>
</g>
<g id="Layer_2">
	<g>
		<g>
			<g>
				<g>
					<path class="st6" d="M121.21,79.41c-0.93,0-1.7,0.3-2.28,0.89c-0.59,0.59-1.09,1.57-1.49,2.92c-0.35,1.18-0.41,2.01-0.16,2.49
						c0.25,0.48,0.86,0.72,1.83,0.72h3.71l-0.56,1.87h-3.81c-0.84,0-1.48-0.07-1.92-0.21c-0.44-0.14-0.82-0.39-1.14-0.73
						c-0.42-0.44-0.66-1.01-0.72-1.71c-0.06-0.7,0.05-1.54,0.34-2.52c0.57-1.9,1.4-3.29,2.49-4.2c1.09-0.9,2.5-1.35,4.23-1.35h3.75
						l-0.55,1.83H121.21z"/>
				</g>
				<g>
					<path class="st6" d="M131.39,77.58h2.39l1.36,10.72h-2.51l-0.22-2.55h-4.66l-1.72,2.55h-2.39L131.39,77.58z M131.86,79.71
						l-2.81,4.13h3.2L131.86,79.71z"/>
				</g>
				<g>
					<path class="st6" d="M139.55,77.58h5.55c1.29,0,2.17,0.26,2.61,0.78c0.45,0.52,0.5,1.34,0.17,2.45
						c-0.25,0.82-0.63,1.49-1.16,2.01c-0.53,0.52-1.16,0.86-1.91,1.01l1.33,4.48h-2.54l-1.1-4.22h-2.66l-1.26,4.22h-2.26
						L139.55,77.58z M144,79.49h-2.77l-0.81,2.7h2.77c0.75,0,1.3-0.1,1.65-0.3c0.35-0.2,0.6-0.55,0.75-1.05
						c0.15-0.49,0.11-0.84-0.12-1.04C145.26,79.59,144.76,79.49,144,79.49"/>
				</g>
				<g>
					<path class="st6" d="M154.88,77.58h2.39l1.36,10.72h-2.51l-0.22-2.55h-4.66l-1.72,2.55h-2.39L154.88,77.58z M155.35,79.71
						l-2.81,4.13h3.2L155.35,79.71z"/>
				</g>
				<g>
					<polygon class="st6" points="161.44,88.3 159.97,77.58 162.54,77.58 163.37,85.57 169.06,77.58 171.47,77.58 163.77,88.3 					
						"/>
				</g>
				<g>
					<path class="st6" d="M174.98,77.58h2.39l1.36,10.72h-2.51L176,85.75h-4.66l-1.72,2.55h-2.39L174.98,77.58z M175.45,79.71
						l-2.81,4.13h3.2L175.45,79.71z"/>
				</g>
				<g>
					<polygon class="st6" points="183.15,77.58 186,77.58 188.08,85.28 190.28,77.58 192.59,77.58 189.37,88.3 186.75,88.3 
						184.57,80.19 182.24,88.3 179.93,88.3 					"/>
				</g>
				<g>
					<path class="st6" d="M203.86,79.49h-5.57c-0.6,0-1.07,0.11-1.42,0.34c-0.35,0.22-0.59,0.58-0.74,1.07
						c-0.12,0.39-0.09,0.68,0.1,0.88c0.18,0.19,0.5,0.29,0.98,0.29h2.98c1.24,0,2.04,0.23,2.43,0.7c0.38,0.47,0.41,1.25,0.08,2.33
						c-0.33,1.1-0.88,1.92-1.63,2.43c-0.76,0.52-1.78,0.78-3.08,0.78h-6l0.57-1.91h5.65c0.64,0,1.12-0.09,1.44-0.28
						c0.32-0.19,0.54-0.5,0.67-0.93c0.13-0.45,0.11-0.77-0.07-0.96c-0.18-0.19-0.57-0.28-1.15-0.28h-2.66
						c-1.24,0-2.06-0.25-2.49-0.74c-0.42-0.49-0.48-1.27-0.16-2.34c0.34-1.14,0.89-1.97,1.65-2.49c0.76-0.53,1.79-0.79,3.1-0.79h5.9
						L203.86,79.49z"/>
				</g>
			</g>
			<g>
				<path class="st6" d="M44.13,90.1c-6.81,0-13.17-1.69-18.41-4.89c-6.23-3.8-10.73-8.91-13.03-14.76
					c-3.54-9.04-2.9-18.21,1.82-25.82c1.92-3.11,4.49-5.84,7.47-7.95c-0.32,0.02-0.62,0.03-0.91,0.03c-1.06,0-3.05-0.11-4.13-0.35
					c-2.8-0.62-5.13-2.06-6.93-4.28c-0.11,0-0.22,0.01-0.34,0.01c-2.31,0-4.5-0.77-6.01-2.1c-2.08-1.84-2.8-5.33-1.61-7.76
					c0.83-1.7,2.52-2.63,4.77-2.63c1.42,0,2.75,0.39,3.08,0.67l0.43,0.37l-0.57,0.03c-0.82,0.04-2.06,0.78-2.37,1.42
					c-0.14,0.29-0.04,0.45,0,0.5c0.06,0.08,0.13,0.12,0.24,0.12c0.36,0,1.01-0.36,1.93-1.08c0.78-0.6,1.65-1.28,3.06-1.43
					c0.24-0.03,0.49-0.04,0.74-0.04c0.19,0,0.39,0.01,0.59,0.02c-0.37-2.05,0.02-3.79,1.14-5.17c1.87-2.3,5.46-3.12,7.98-3.12
					c0.42,0,0.81,0.02,1.16,0.07c4.22,0.54,6.07,3.36,6.14,3.48l0.26,0.41l-0.49-0.07c-0.01,0-0.74-0.1-1.52-0.1
					c-1.29,0-1.63,0.28-1.71,0.39c-0.04,0.06-0.08,0.16-0.01,0.35c0.05,0.13,0.33,0.21,0.76,0.21c1.26,0,3.6-0.65,5.35-1.3
					l0.15-0.06c0.12-0.04,0.23-0.09,0.35-0.13c5.22-1.76,10.11-2.66,14.56-2.66c9.11,0,14.12,3.68,16.32,5.9
					c3.28,1.12,5.83,3.5,7.58,7.1l1.06-0.13l5.39,8.76l-10.4,13.94l-0.06-0.58c0-0.01-0.05-0.45-0.25-1.11
					c-2.43,5.71-7.97,10.83-14.28,13.15l-0.43,0.16l0.65-2.06c1.11-3.5,0.82-6.74-0.86-9.63c0.2,3.79-2.38,7.95-5.15,10.15
					l-0.34-0.28c0.3-0.61,0.62-1.3,0.84-2.02c-1.69,1.75-5.09,4.55-9.64,4.77c0.82,0.36,1.69,0.55,2.62,0.55
					c1.71,0,3.46-0.64,4.82-1.76l0.34,0.28c-0.93,1.78-2.55,2.71-4.05,3.49c0.34,0.22,0.69,0.43,1.03,0.64
					c0.29,0.18,0.6,0.36,0.88,0.54c0.84,0.54,2.03,1.21,2.33,1.31c2.29-1.44,2.5-2.86,2.5-2.87L49,62.45l0.3,0.18
					c1.71,1.03,3.51,2.23,5.22,3.39c1.74-4.65,4.81-7.09,4.94-7.19l0.38-0.3l-0.01,0.48c-0.14,4.72,2.85,8.66,5.52,8.92l141.68,0.7
					l-1.59,5.21l-93.73,1.75c0.41,1,0.44,2.46-0.42,3.65l-0.12,0.16L111,79.31c-3.05-1.59-6.86-2.47-11.34-2.47
					c-11.57,0-24.76,5.29-31.85,8.09l-0.25,0.1c-6.31,2.24-13.68,4.65-21.35,5.03C45.51,90.09,44.81,90.1,44.13,90.1 M66.84,44.45
					c-0.27-0.45-0.59-0.88-0.94-1.27c-0.6,0.15-1.25,0.72-1.77,1.27H66.84z M37.2,31.8c0.44,0,0.9,0.01,1.35,0.03
					c0.61-1.26,2.01-2.52,3.2-2.84l0.38-0.1l-0.1,0.38c-0.15,0.57-0.12,1,0.1,1.28c0.23,0.3,0.69,0.45,1.38,0.45
					c0.79,0,1.86-0.2,3.24-0.62c-0.01-1.71,0.16-3.88,1.32-5.95c-2.37,0.55-4.71,2.27-7.41,4.25c-1.42,1.04-2.89,2.12-4.52,3.15
					C36.49,31.81,36.84,31.8,37.2,31.8"/>
			</g>
			<g>
				<path class="st7" d="M107.52,76.19c0.47,0.12,0.93,0.25,1.37,0.39c0.37,0.12,0.78,0.26,1.21,0.42c0.05-0.16,0.05-0.3,0.03-0.42
					c-0.2-1.12-2.56-3.55-10.12-5.52c-2.56-0.67-13.61-2.57-22.96,0.13c-4.79,1.39-8.31,2.38-12.02,3.59
					c-2.6,0.85-5.29,1.73-8.12,2.54c-2.06,0.59-9.45,2.4-17.91,1.08c-6.99-1.09-12.46-4.07-15.97-8.67c-0.01,0-0.01,0.01-0.02,0.01
					l-0.03-0.07c-0.48-0.63-0.92-1.29-1.33-1.99c-3.92-6.73-3.64-14.16,0.78-20.38c4.54-6.4,12.5-9.95,19.36-8.62
					c5.33,1.03,10.14,4.19,12.55,8.25c1.7,2.86,2.23,6.12,1.56,9.51c2.51-1.42,6.02-4.28,8.4-7.79v0c0.5-0.74,0.96-1.51,1.34-2.31
					l-4.21,0.06c-9.28-13.04-22.59-12.95-26.45-12.61c-7.64,0.67-14.7,5.1-18.88,11.84c-4.4,7.1-4.99,15.67-1.67,24.14
					c2.71,6.9,8.16,11.33,12.25,13.83c5.47,3.34,12.19,4.92,19.42,4.56c7.21-0.35,14.25-2.57,20.8-4.92
					c5.8-2.08,21.07-8.22,32.14-8.22C102.94,75.02,105.83,75.67,107.52,76.19"/>
			</g>
			<g>
				<path class="st7" d="M34.1,16.82c-0.16,0.05-0.32,0.12-0.48,0.18c-2.44,0.9-5.21,1.91-7.53,0.92c-1.5-0.64-1.7-1.43-1.61-1.99
					c0.11-0.67,0.73-1.19,1.72-1.49c0,0,0,0,0,0c0,0,0,0,0,0c0.01,0,0.02-0.01,0.03-0.01c0,0,0,0,0,0c-0.23-0.26-0.57-0.46-0.95-0.6
					c-0.49-0.19-1.01-0.27-1.42-0.28c-6.32-0.21-10.91,5.34-5.05,8.22c0,0,0,0,0,0c0.11,0.04,0.22,0.08,0.35,0.12
					c0.42,0.13,0.84,0.23,1.27,0.31c0.01,0,0.03,0.01,0.04,0.01c0.07,0.01,0.13,0.02,0.2,0.04c0.09,0.01,0.18,0.03,0.27,0.04
					c0.01,0,0.01,0,0.02,0c5.23,0.75,10.99-1.55,10.99-1.55c-3.73,2.6-7.06,4.27-13.17,2.61c-0.7-0.19-1.38-0.41-2.03-0.64
					c-0.62-0.22-1.22-0.43-1.82-0.58l-0.04,0.02c-0.01-0.01-0.01-0.02-0.02-0.04c-0.68-0.16-1.36-0.25-2.08-0.17
					c-0.91,0.1-1.5,0.55-2.18,1.08c-0.57,0.44-1.22,0.95-2.1,1.22C7,24.7,6.1,24.04,5.79,23.33c-0.24-0.55-0.21-1.27,0.17-1.94
					c-0.44,0.04-0.82,0.16-1.15,0.34c-0.01,0.01-0.02,0.01-0.03,0.01c-0.04,0.03-0.09,0.05-0.13,0.08
					c-0.02,0.01-0.03,0.02-0.05,0.04c-0.03,0.02-0.07,0.05-0.1,0.07c-0.05,0.04-0.1,0.08-0.14,0.12c0,0,0,0-0.01,0
					c-0.07,0.06-0.13,0.13-0.19,0.2c-0.01,0.01-0.01,0.01-0.02,0.02c-0.06,0.07-0.11,0.14-0.16,0.22c-0.01,0.01-0.01,0.02-0.02,0.03
					c-0.05,0.08-0.1,0.16-0.15,0.25c-0.05,0.09-0.09,0.18-0.12,0.28c-0.01,0.02-0.01,0.04-0.02,0.05c-0.35,0.95-0.3,2.14,0.07,3.22
					c0.04,0.1,0.07,0.2,0.11,0.3c0.28,0.69,0.7,1.32,1.23,1.79c1.65,1.46,3.82,1.88,5.86,1.81c1.99-0.06,6.12-2.24,8.03-1.72
					c1.06,0.29,1.49,0.96,1.59,1.5c0,0,0,0,0,0c0,0.03,0.01,0.05,0.01,0.08c0,0.02,0.01,0.04,0.01,0.05c0.01,0.13,0,0.25-0.02,0.35
					c-0.02,0.08-0.04,0.16-0.07,0.24c0,0,0,0,0,0.01c0,0,0,0,0,0c-0.82,2.44-4.37,1.65-4.77,1.61c1.47-0.22,3.36-1,2.81-2.01
					c0,0,0,0,0,0c0,0,0,0,0,0c-0.26-0.47-0.73-0.63-1.3-0.61c-1.01,0.01-2.3,0.6-3.24,1.02c-0.04,0.02-0.09,0.04-0.13,0.06
					c-0.3,0.13-0.6,0.26-0.89,0.39c-0.15,0.06-0.3,0.12-0.45,0.18c1.79,2.02,3.97,3.01,6.21,3.39c0.15,0.03,0.3,0.05,0.45,0.07
					c1.42,0.19,2.85,0.14,4.22-0.05c0.98-0.13,1.92-0.33,2.8-0.56c1.38-0.36,2.68-0.83,3.92-1.37c0.18-0.08,0.35-0.15,0.53-0.23
					c4.64-2.11,8.4-5.18,11.91-7.46c0.11-0.07,0.22-0.14,0.33-0.21c2.29-1.46,4.48-2.55,6.74-2.79c0.15-0.02,0.3-0.03,0.45-0.04
					c0.16-0.17,0.33-0.33,0.51-0.49c0.1-0.1,0.21-0.19,0.31-0.28c0.76-0.66,1.61-1.24,2.52-1.72c2.16-1.15,4.66-1.77,7.15-1.67
					c0.33,0.01,0.65,0.04,0.96,0.07C56.77,14.83,47.48,12.54,34.1,16.82"/>
			</g>
			<g>
				<path class="st7" d="M54.88,24c1.73,2.16,4.07,2.85,6.57,2.99l8.63-1.03c-2.09-4.04-5.31-6.18-9.56-6.35
					c-1.54-0.06-3.09,0.2-4.55,0.72c-0.24,0.19-0.46,0.38-0.67,0.56C54.46,21.52,54.05,22.76,54.88,24"/>
			</g>
			<g>
				<path class="st7" d="M75.89,33.45l-3.68-6.41L55.36,29.1l-2.6,4.39c0,0,9.59,4.66,13,6.9c2.95,1.94,3.23,3.86,3.23,3.86
					l6.59-9.55l-6.95-1.12L75.89,33.45z M63.16,29.19l8.25-0.09l1.88,3.05l-10.76-1.17L63.16,29.19z M62.42,36.94l2.06-3.05
					l2.12,0.49l-2.39,3.55C63.65,37.62,63.04,37.28,62.42,36.94 M73.16,35.88l-4.02,5.82c-0.32-0.42-0.73-0.87-1.25-1.33l3.33-4.93
					L73.16,35.88z M70.05,35.17l-3.02,4.5c-0.17-0.13-0.35-0.25-0.54-0.38c-0.34-0.22-0.74-0.47-1.18-0.73l2.63-3.88L70.05,35.17z"
					/>
			</g>
			<g>
				<path class="st8" d="M35.67,62.27c-0.64-1.04-0.78-2.59,0.98-3.23c-0.41-0.26-0.74-0.88-1.15-1.13
					c1.62-1.14,3.14-2.52,4.73-3.73c-3.12-3.79-11.11-8.5-14.79-7.15c0.99-0.05,1.13,0.01,2.49,0.33c-1.05,1.04-1.92,2.06-2.62,3.14
					c3.63,1.51,6.94,3.28,9.16,6.43c-3.96-2.87-7.41-4.25-11.85-4.96c0.63,0.27,0.79,0.51,1.39,0.86c-0.3,0.71-0.54,1.48-0.73,2.2
					c2.5,0.76,3.79,1.47,5.57,3c-2.9-1.15-4.34-1.47-7.39-1.79c0.95,0.42,1.36,0.84,1.36,0.84c-0.26,1.87-0.14,3.61,0.2,4.7
					c1.64-0.36,2.68-0.33,4.19-0.19c-2.25,0.55-3.15,1.39-4.86,2.91c0.76-0.33,1.45-0.61,1.45-0.61c0.31,0.67,0.64,1.27,1.01,1.83
					C28.72,62.94,33.11,62.18,35.67,62.27"/>
			</g>
			<g>
				<path class="st8" d="M37.55,64.92c-0.37-0.31-0.72-0.64-1.08-0.97c-6.06,0.33-9.44,3.31-11.12,5.19
					c0.64-0.29,1.23-0.57,1.62-0.74c1.39,1.4,3.09,2.59,5.21,3.7C33.81,68.99,35.79,66.6,37.55,64.92"/>
			</g>
			<g>
				<path class="st8" d="M53.47,73.5c-0.92-1.47-0.88-3.02-1.14-4.59c0.45,0.57,0.93,1.12,1.37,1.69c0.08-0.8,0.21-1.57,0.37-2.29
					c-1.41-0.96-2.87-2.2-4.34-3.04c-0.23,1.15-3.51,3.15-3.51,3.15l-0.74-0.5c-0.93-0.61-1.83-1.26-2.71-1.89
					c-0.75-0.54-1.51-1.08-2.29-1.61c-2.22,1.61-5.6,5.02-7.85,10.27c0.44-0.61,0.96-1.17,1.48-1.74c2.48,0.9,6.69,1.06,9.3,0.34
					c-0.26,0.78-0.54,1.91-0.61,2.97c0.36-1.37,1-2.68,1.53-4.04c1.78,2.24,3.04,3.23,5.56,4.59C49.9,76.81,50.62,74.51,53.47,73.5"
					/>
			</g>
			<g>
				<path class="st8" d="M42.15,54.7c-1.96-3.98-7.19-7.91-11.26-9.16c-0.25-0.08-0.5-0.14-0.74-0.19
					c2.87-2.54,8.12-6.33,15.36-3.68c1.63,0.67,2.79,1.31,4.09,2.36c1.29,3.36,0.43,7.87-3.27,9.49
					C46.32,53.52,44.22,54.44,42.15,54.7"/>
			</g>
			<g>
				<path class="st8" d="M101.21,69.84c4.24,0.72,6.38,1.88,9.1,3.75l93.32-1.4l0.5-1.65L101.21,69.84z"/>
			</g>
			<g>
				<path class="st8" d="M49.76,20.64c-7.59-1.35-11.06,4.04-19.51,9.16c-2.25,1.36-5.22,2.94-7.75,2.51c0,0,0.01-0.01,0.01-0.01
					c2.71-4.32-2.07-7.49-6.13-6.6c-3.29,0.72-5.39,3.67-9.45,2.33c-2.45-1.22-3.65-4.3-1.24-6.6c-0.53,0.09-0.98,0.3-1.33,0.63
					c0,0,0,0-0.01,0.01c-0.07,0.06-0.13,0.13-0.19,0.2c-0.01,0.01-0.01,0.01-0.02,0.02c-0.06,0.07-0.11,0.14-0.16,0.22
					c-0.01,0.01-0.01,0.02-0.02,0.03c-0.05,0.08-0.1,0.16-0.15,0.25c-0.04,0.09-0.09,0.18-0.12,0.28c-0.01,0.02-0.01,0.03-0.02,0.05
					c-0.35,0.95-0.3,2.14,0.07,3.22c0.28,0.8,0.74,1.55,1.35,2.09c1.65,1.46,3.82,1.88,5.86,1.81c1.99-0.06,6.12-2.24,8.03-1.72
					c1.06,0.29,1.49,0.96,1.59,1.5c0,0,0,0,0,0c0.01,0.03,0.01,0.05,0.01,0.08c0,0.02,0.01,0.03,0.01,0.05
					c0.01,0.13,0,0.25-0.02,0.35c-0.02,0.08-0.04,0.16-0.07,0.24c0,0,0,0,0,0.01c0,0,0,0,0,0c-0.82,2.44-4.37,1.65-4.77,1.61
					c1.47-0.22,3.36-1,2.81-2.01c0,0,0,0,0,0c0,0,0,0,0,0c-0.26-0.47-0.73-0.63-1.3-0.61c-1.01,0.01-2.3,0.6-3.24,1.02
					c-0.04,0.02-0.09,0.04-0.13,0.06c-0.3,0.13-0.6,0.26-0.89,0.39c-0.15,0.06-0.3,0.12-0.45,0.18c1.79,2.02,3.97,3.01,6.21,3.39
					c0.15,0.02,0.3,0.05,0.45,0.07c1.42,0.19,2.85,0.14,4.22-0.05c0.98-0.13,1.92-0.33,2.8-0.56c1.57-0.41,3.05-0.97,4.45-1.6
					c4.64-2.11,8.4-5.18,11.91-7.46c0.11-0.07,0.22-0.14,0.33-0.21c2.44-1.55,4.77-2.69,7.19-2.82c0.16-0.17,0.33-0.33,0.51-0.49
					c0.1-0.09,0.21-0.19,0.31-0.28c0.08-0.06,0.16-0.14,0.23-0.19C50.78,20.93,50.41,20.77,49.76,20.64"/>
			</g>
			<g>
				<path class="st8" d="M18.8,21.76c0.11,0.04,0.22,0.08,0.35,0.12c1.89,0.58,3.92,0.62,5.82,0.45c-10.23-1.97-6.21-9.7,1.22-7.89
					c0.01,0,0.03-0.02,0.03-0.01c-0.52-0.6-1.66-0.86-2.37-0.89C17.53,13.33,12.95,18.88,18.8,21.76"/>
			</g>
			<g>
				<path class="st8" d="M58.63,62.89c-2.39,3.03-3.87,8.21-2.79,13.09c8.18-2.82,17.65-5.41,20.5-6.21c-3.9,0-9.47-0.02-11.22-0.02
					C63.37,69.76,59.15,67.13,58.63,62.89"/>
			</g>
			<g>
				<path class="st8" d="M68.62,33.59c0,0-6.2-1.54-13.1-4.5l-0.17,0.02l-2.6,4.39c0,0,9.59,4.66,13,6.9
					c2.95,1.94,3.23,3.86,3.23,3.86l6.59-9.55L68.62,33.59z M62.42,36.94l2.06-3.05l2.12,0.49l-2.39,3.55
					C63.65,37.61,63.04,37.28,62.42,36.94 M67.02,39.67c-0.17-0.13-0.35-0.25-0.54-0.38c-0.34-0.22-0.74-0.47-1.18-0.73l2.63-3.88
					l2.12,0.48L67.02,39.67z M67.89,40.37l3.33-4.93l1.93,0.44l-4.02,5.82C68.82,41.28,68.41,40.83,67.89,40.37"/>
			</g>
			<g>
				<path class="st8" d="M55.67,38.09c2.16,1.56,4.64,4.04,6.2,6.11c0.02,0.03,0.04,0.05,0.06,0.08c0.18-0.21,0.35-0.41,0.45-0.52
					c1.14-1.57-0.05-3.13-4.1-5.68c-3.54-2.23-7.39-4.03-7.39-4.03l3.24-6.18L61.44,27c-2.5-0.14-4.84-0.83-6.57-2.99
					c-0.83-1.24-0.41-2.48,0.41-3.1c0.21-0.18,0.44-0.37,0.67-0.56c-2.57,0.92-4.84,2.64-6.14,4.83c-1.15,1.93-1.24,4.13-1.17,6.04
					l0.01,0.21c0.15,0.93,0.37,1.84,0.63,2.7c-0.6-0.48-1.27-1.14-1.82-1.85c-0.56,0.2-1.12,0.36-1.66,0.51
					c-0.27,0.09-0.53,0.18-0.79,0.25c0.75,0.19,1.52,0.42,2.3,0.68C50.35,34.74,53.14,36.2,55.67,38.09"/>
			</g>
			<g>
				<path class="st9" d="M23.27,55.03c0.7,0.02,1.54,0.09,2.28,0.39c0.32-0.94,0.79-1.6,1.26-2.48c-1.53-0.54-2.69-0.73-4.2-0.97
					c0.63,0.27,0.79,0.51,1.39,0.86C23.7,53.53,23.46,54.3,23.27,55.03"/>
			</g>
			<g>
				<path class="st9" d="M27.93,47.36c-1.05,1.04-1.92,2.06-2.62,3.14c0.83,0.1,1.54,0.26,2.33,0.66c0.91-1.4,2.01-2.31,3.24-3.47
					c-2.31-0.95-3.99-1.19-5.44-0.66C26.43,46.98,26.58,47.04,27.93,47.36"/>
			</g>
			<g>
				<path class="st9" d="M25.78,64.46c-0.52-0.65-0.77-1.28-0.96-1.93c-0.97,0.57-1.59,1.18-2.48,1.97
					c0.76-0.33,1.45-0.61,1.45-0.61c0.31,0.67,0.64,1.27,1.01,1.83c0.44-0.31,0.68-0.8,1.12-1.07
					C25.85,64.55,25.85,64.56,25.78,64.46"/>
			</g>
			<g>
				<path class="st9" d="M23.01,61.78c0.47-0.36,1.05-0.58,1.66-0.7c0.01,0,0-0.19,0-0.2c-0.03-1.54,0.19-2.57,0.58-4.05
					c-1.45-0.35-2.35-0.44-3.79-0.59c0.95,0.42,1.36,0.84,1.36,0.84C22.55,58.94,22.67,60.68,23.01,61.78"/>
			</g>
			<g>
				<path class="st9" d="M27.91,66.84c-1.11,0.79-1.95,1.62-2.56,2.31c0.64-0.29,1.23-0.57,1.62-0.74c1.39,1.4,3.09,2.59,5.21,3.7
					c0.06-0.78,0.29-1.48,0.65-2.07C30.87,69.23,29.48,68.33,27.91,66.84"/>
			</g>
			<g>
				<path class="st9" d="M53.47,73.5c-0.91-1.51-0.88-3.02-1.14-4.59c0.45,0.57,0.93,1.12,1.37,1.69c0.08-0.8,0.2-1.57,0.37-2.29
					c-0.2-0.14-0.42-0.29-0.61-0.43c-0.78-0.56-2.33-1.8-3.73-2.61c0.63,0.86,1,2.16,1.25,3.44c0.32,1.66,0.43,3.28,0.62,3.85
					c-0.74,0.2-2.07,1.55-2.27,2.07c-1.31-1.12-3.42-2.4-4.21-4.27c-0.54,0.39-3.85,2.5-10,0.64c-0.74,1.17-1.87,2.26-2.49,3.71
					c0.44-0.61,0.96-1.17,1.48-1.74c2.48,0.9,6.69,1.06,9.3,0.34c-0.26,0.78-0.54,1.91-0.61,2.97c0.36-1.37,1-2.68,1.53-4.04
					c1.78,2.24,3.04,3.23,5.56,4.59C49.9,76.81,50.57,74.57,53.47,73.5"/>
			</g>
			<g>
				<path class="st9" d="M49.59,44.03c-1.3-1.05-2.47-1.69-4.09-2.36c-7.24-2.65-12.49,1.13-15.36,3.68
					c0.25,0.05,0.5,0.11,0.74,0.19c0.56,0.17,1.14,0.4,1.73,0.66c2.2-1.59,4.97-2.94,7.56-3.54c3.86,0.71,9.02,2.22,9.31,7.73
					c0.85-1.85,0.89-4.11,0.23-6.03c-0.01-0.04-0.03-0.08-0.04-0.11C49.64,44.17,49.62,44.1,49.59,44.03"/>
			</g>
			<g>
				<path class="st9" d="M55.96,68.63c-0.56,2.32-0.67,4.88-0.12,7.36c5.08-1.55,9.81-3.17,13.49-4.22
					C61.78,71.77,58.67,71.72,55.96,68.63"/>
			</g>
			<g>
				<path class="st9" d="M54.62,68.45c0.01,0.01,0.03,0.03,0.04,0.04c0-0.01,0.01-0.02,0.01-0.03L54.62,68.45z"/>
			</g>
			<g>
				<path class="st9" d="M68,71.57c-0.06,0.02-0.11,0.03-0.17,0.05c0.12,0,0.23,0,0.34-0.01L68,71.57z"/>
			</g>
			<g>
				<path class="st6" d="M92.24,66.05c-6.52,0-8.76-2.16-7.28-7.01l3.54-11.58h7.21l-3.43,11.22c-0.57,1.85-0.32,2.1,2,2.1h4.02
					l4.08-13.32h7.21l-5.69,18.59H92.24z"/>
			</g>
			<g>
				<path class="st6" d="M63.29,66.05l5.69-18.59h11.75c4.79,0,6.23,1.42,5.11,5.06l-1.1,3.6h-6.98l0.9-2.95
					c0.29-0.94,0.29-0.94-1.19-0.94h-2.75L70.5,66.05H63.29z"/>
			</g>
			<g>
				<path class="st6" d="M200.62,66.05l5.69-18.59h11.75c4.79,0,6.23,1.42,5.11,5.06l-1.1,3.6h-6.98l0.9-2.95
					c0.29-0.94,0.29-0.94-1.19-0.94h-2.75l-4.23,13.81H200.62z"/>
			</g>
			<g>
				<path class="st6" d="M105.3,66.05l1.55-5.07h12.87c2.02,0,2.17-0.5,2.29-0.9c0.12-0.39,0.29-0.94-1.73-0.94h-5.23
					c-5.18,0-7.71-0.89-6.28-5.58c1.26-4.1,4.53-6.1,10.01-6.1h13.1l-1.55,5.07h-11.04c-2.84,0-2.92,0.27-3.08,0.81
					c-0.11,0.36-0.24,0.77,1.43,0.77h5.47c4.95,0,7.14,2.13,6,5.84c-1.1,3.59-4.54,6.1-8.37,6.1H105.3z"/>
			</g>
			<g>
				<path class="st6" d="M135.27,66.05c-4.6,0-6.61-2.07-5.51-5.68c1.33-4.34,4.61-6.2,10.97-6.2h6.77
					c0.26-1.16-0.25-1.68-3.48-1.68h-10.49l1.54-5.03h12.56c6.12,0,8.59,2.47,7.16,7.14l-3.5,11.45H135.27z M140.41,59.08
					c-2.34,0-2.57,0.4-2.8,1.16c-0.2,0.67-0.27,0.87,1.79,0.87h6.44l0.62-2.03H140.41z"/>
			</g>
			<g>
				<path class="st6" d="M163.2,66.05c-6.83,0-9.82-3.55-8-9.5c0.75-2.45,2.16-4.46,4.3-6.17c2.6-2.07,5.42-2.91,9.73-2.91h4.29
					l1.89-6.19h7.21l-7.58,24.78H163.2z M169.01,52.66c-3.89,0-5.45,1.02-6.42,4.21c-0.94,3.08-0.13,4.02,3.48,4.02h3.36l2.52-8.23
					H169.01z"/>
			</g>
			<g>
				<path class="st6" d="M185.54,66.05c-6.12,0-8.59-2.47-7.16-7.14l1.31-4.31c1.43-4.67,5.42-7.14,11.53-7.14h6.68
					c4.6,0,6.61,2.07,5.51,5.68c-1.33,4.34-4.61,6.2-10.97,6.2h-6.77c-0.26,1.16,0.25,1.68,3.48,1.68h10.49l-1.54,5.03H185.54z
					 M193.16,54.43c2.34,0,2.57-0.4,2.8-1.16c0.2-0.67,0.27-0.87-1.79-0.87l-4.38-0.01c-2.06,0-2.12,0.2-2.32,0.87l-0.36,1.17
					H193.16z"/>
			</g>
			<g>
				<path class="st6" d="M44.13,87.39c-6.31,0-12.19-1.55-17-4.49c-3.99-2.43-9.29-6.74-11.92-13.44
					c-3.23-8.22-2.66-16.54,1.6-23.41c4.05-6.53,10.87-10.81,18.25-11.46c0.68-0.06,1.4-0.09,2.15-0.09
					c5.52,0,15.92,1.61,23.57,12.36l0.25,0.35l3.26-0.04l-0.21,0.33c-0.14,0.22-0.29,0.45-0.44,0.68c-2.11,3.11-4.86,5.32-6.31,6.37
					l-0.36,0.26l0.02-0.45c0.14-2.78-0.53-5.5-1.93-7.85c-2.53-4.25-7.55-7.56-13.1-8.63c-0.99-0.19-2.03-0.29-3.09-0.29
					c-6.4,0-13.11,3.63-17.09,9.24c-4.61,6.5-4.91,14.25-0.82,21.26c0.4,0.69,0.84,1.36,1.32,2l0.51,0.65
					c3.64,4.47,9.2,7.4,16.09,8.47c2.04,0.32,4.18,0.48,6.34,0.48c5.74,0,10.25-1.11,11.92-1.58c2.84-0.81,5.53-1.69,8.13-2.54
					l0.03-0.01c3-0.98,7.07-2.28,11.96-3.58c3.62-0.96,7.47-1.45,11.44-1.45c5.48,0,9.6,0.92,11.11,1.32
					c3.02,0.79,5.45,1.71,7.21,2.75L106.84,75c-1.76-0.52-4.48-0.84-7.1-0.84c-11.35,0-25.31,5.34-31.27,7.62l-0.01,0.01
					c-0.77,0.3-1.38,0.53-1.82,0.69C60.16,84.8,53.18,87,46.08,87.35C45.43,87.38,44.77,87.39,44.13,87.39L44.13,87.39z"/>
			</g>
		</g>
		<g>
			<path class="st9" d="M107.06,71.63c1.11,0.55,2.13,1.2,3.25,1.97l93.32-1.4l0.17-0.57L107.06,71.63z"/>
		</g>
	</g>
</g>
</svg>
