<?xml version="1.0" standalone="no"?>
<!DOCTYPE svg PUBLIC "-//W3C//DTD SVG 20010904//EN"
 "http://www.w3.org/TR/2001/REC-SVG-20010904/DTD/svg10.dtd">
<svg version="1.0" xmlns="http://www.w3.org/2000/svg"
 width="300.000000pt" height="300.000000pt" viewBox="0 0 300.000000 300.000000"
 preserveAspectRatio="xMidYMid meet">
<metadata>
Created by potrace 1.14, written by Peter Selinger 2001-2017
</metadata>
<g transform="translate(0.000000,300.000000) scale(0.100000,-0.100000)"
fill="#000000" stroke="none">
<path d="M295 2023 c-54 -11 -82 -26 -98 -52 -9 -16 -14 -36 -11 -45 4 -11 0
-16 -13 -16 -11 0 -28 -7 -39 -15 -10 -8 -23 -14 -29 -14 -5 0 -2 6 8 13 22
17 11 26 -26 22 -66 -8 -89 -78 -42 -129 14 -15 31 -27 38 -28 31 -2 48 -9 80
-33 19 -15 54 -29 79 -32 l45 -6 -38 -35 c-130 -118 -143 -348 -28 -501 98
-129 277 -193 464 -163 66 10 224 57 290 86 154 67 383 97 468 62 38 -17 47
-14 47 15 0 10 7 18 18 19 46 2 327 7 717 14 531 9 502 8 513 20 5 6 12 21 15
35 l6 26 -697 3 c-383 2 -813 4 -955 5 l-259 2 -19 24 c-10 14 -21 40 -25 58
-3 17 -10 32 -15 32 -5 0 -22 -20 -38 -45 l-28 -44 -34 23 c-33 23 -33 23 -49
3 -15 -18 -20 -19 -47 -7 l-31 14 24 19 c13 10 24 23 24 29 0 7 -5 6 -14 -1
-18 -15 -56 -22 -56 -10 0 5 6 9 14 9 7 0 30 11 50 25 21 14 35 21 31 15 -3
-5 -2 -10 4 -10 12 0 50 61 61 98 l7 27 10 -35 c5 -19 6 -51 2 -70 -4 -19 -6
-36 -4 -38 2 -3 24 7 49 22 49 29 113 91 122 119 3 9 11 17 18 17 6 0 41 39
76 86 l64 86 -22 42 c-50 94 -183 206 -278 234 -62 18 -161 15 -250 -9 -43
-12 -90 -22 -104 -24 -14 -1 -17 0 -7 2 9 2 17 8 17 13 0 6 -44 31 -80 45 -3
1 -14 0 -25 -2z m333 -213 c-9 -35 -14 -40 -38 -40 -16 0 -30 6 -33 13 -3 9
-9 8 -23 -4 -25 -21 -44 -32 -44 -25 0 10 121 96 135 96 10 0 11 -9 3 -40z
m259 -216 c-3 -3 -12 -4 -19 -1 -8 3 -5 6 6 6 11 1 17 -2 13 -5z"/>
<path d="M2330 1604 c-6 -14 -10 -31 -10 -38 0 -9 -23 -15 -72 -20 -112 -10
-169 -57 -184 -151 -4 -30 -1 -40 25 -65 29 -30 31 -30 138 -30 l108 0 48 158
c26 86 47 160 47 165 0 4 -20 7 -45 7 -40 0 -47 -3 -55 -26z m-40 -133 c0 -3
-6 -26 -14 -51 -12 -43 -15 -45 -53 -48 -51 -4 -67 13 -52 55 5 17 20 35 32
41 23 11 87 13 87 3z"/>
<path d="M884 1433 c-20 -65 -38 -121 -41 -125 -2 -5 18 -8 46 -8 l50 0 28 90
c21 68 32 90 46 90 28 0 32 -4 29 -28 -3 -21 0 -23 43 -21 43 3 46 4 55 40 19
69 7 76 -132 78 l-87 2 -37 -118z"/>
<path d="M1155 1466 c-31 -99 -30 -135 5 -153 30 -15 229 -18 231 -3 2 15 3
18 33 115 15 50 30 98 32 108 5 16 0 18 -43 15 l-48 -3 -28 -87 -28 -88 -40 0
c-46 0 -47 3 -19 90 28 88 28 90 -25 90 l-44 0 -26 -84z"/>
<path d="M1512 1535 c-34 -15 -50 -34 -62 -75 -7 -25 -5 -35 11 -51 11 -11 30
-19 42 -19 12 1 47 2 77 1 94 -2 42 -22 -59 -23 -89 0 -93 -1 -102 -25 -5 -13
-9 -29 -9 -34 0 -13 227 -11 253 2 48 26 72 89 49 127 -8 11 -64 20 -134 22
-16 0 -28 5 -28 10 0 6 38 10 94 10 99 0 106 3 106 51 0 18 -7 19 -105 17 -58
-1 -118 -7 -133 -13z"/>
<path d="M1797 1533 c-2 -10 -8 -26 -12 -35 -6 -16 1 -18 83 -18 50 0 94 -4
97 -10 4 -6 -14 -10 -47 -11 -122 -1 -164 -19 -184 -80 -23 -67 2 -79 166 -79
104 0 119 2 124 18 2 9 14 50 26 91 35 121 18 137 -146 140 -90 2 -102 0 -107
-16z m151 -155 c-4 -11 -32 -14 -96 -9 -13 0 -20 6 -17 11 9 15 118 13 113 -2z"/>
<path d="M2473 1534 c-38 -16 -68 -51 -82 -96 -21 -66 -22 -85 -2 -109 18 -22
28 -24 131 -27 62 -2 116 0 120 5 4 4 10 21 14 36 7 28 7 29 -41 27 -90 -3
-133 0 -133 10 0 6 26 10 59 10 82 0 117 9 145 36 42 42 41 96 -2 113 -35 14
-174 11 -209 -5z m135 -59 c12 -11 -11 -19 -58 -20 -33 -1 -50 3 -50 11 0 7 5
14 11 16 15 5 90 0 97 -7z"/>
<path d="M2749 1548 c0 -2 -2 -10 -4 -18 -4 -23 -45 -152 -56 -178 -18 -46
-13 -53 37 -50 l46 3 26 85 c28 91 34 100 63 93 14 -4 17 -11 13 -30 -6 -23
-5 -24 42 -21 49 3 49 3 58 46 13 62 -4 71 -126 72 -54 0 -98 -1 -99 -2z"/>
<path d="M1576 1131 c-50 -30 -63 -105 -20 -121 38 -15 74 -12 74 5 0 10 -10
15 -30 15 -36 0 -47 19 -29 52 16 31 28 38 67 38 17 0 32 5 32 10 0 6 -3 11
-7 11 -35 6 -67 3 -87 -10z"/>
<path d="M1702 1078 c-33 -45 -48 -74 -41 -77 7 -2 20 6 29 17 11 13 28 20 48
20 17 -1 31 -4 30 -7 -2 -19 4 -28 17 -28 13 0 15 11 9 66 -3 36 -8 69 -11 74
-11 18 -32 2 -81 -65z m58 8 c0 -18 -5 -24 -19 -23 -17 1 -18 3 -4 24 19 29
23 29 23 -1z"/>
<path d="M1840 1079 c-24 -80 -24 -79 -6 -79 8 0 17 14 21 30 4 20 13 30 25
30 11 0 22 -11 29 -30 14 -41 43 -42 31 -1 -6 23 -4 33 10 46 23 21 32 53 17
62 -6 4 -33 7 -59 8 l-47 1 -21 -67z m100 26 c0 -15 -5 -17 -35 -17 -30 0 -34
2 -29 17 4 9 19 15 35 15 19 0 29 -5 29 -15z"/>
<path d="M2013 1074 c-30 -42 -47 -74 -39 -74 7 0 21 9 31 20 23 26 72 24 79
-3 4 -18 33 -19 30 -1 -1 5 -5 34 -8 63 -11 90 -26 89 -93 -5z m60 -1 c-3 -7
-11 -13 -19 -13 -17 0 -17 5 -2 30 13 21 30 8 21 -17z"/>
<path d="M2144 1138 c-8 -12 -8 -38 1 -83 2 -11 4 -28 4 -37 2 -35 32 -17 81
50 54 73 57 79 37 79 -7 0 -29 -22 -48 -48 -19 -27 -37 -49 -41 -49 -4 0 -6
18 -6 41 0 44 -14 70 -28 47z"/>
<path d="M2283 1076 c-29 -40 -47 -73 -41 -75 6 -2 19 5 27 15 23 27 71 30 78
4 8 -31 33 -25 32 8 -1 64 -14 115 -29 117 -9 2 -37 -27 -67 -69z m57 9 c0
-16 -6 -25 -15 -25 -18 0 -18 5 -5 31 14 26 20 24 20 -6z"/>
<path d="M2425 1087 c-9 -34 -19 -67 -22 -74 -3 -7 2 -13 11 -13 11 0 20 15
28 45 7 25 15 45 19 45 4 0 12 -21 18 -46 17 -66 40 -57 67 26 12 36 19 68 17
72 -9 18 -30 -7 -42 -50 l-14 -47 -11 42 c-12 45 -19 56 -40 59 -9 1 -20 -20
-31 -59z"/>
<path d="M2629 1142 c-29 -3 -55 -41 -46 -66 4 -11 19 -16 48 -16 57 0 46 -24
-15 -30 -52 -6 -67 -24 -21 -27 52 -3 85 8 102 33 24 37 10 47 -76 53 -11 1
-11 4 -1 15 6 8 33 16 58 18 27 2 45 7 42 13 -5 10 -43 13 -91 7z"/>
</g>
</svg>
